<svg width="1500" height="312" viewBox="0 0 1500 312" fill="none" xmlns="http://www.w3.org/2000/svg">
<path d="M131.994 16H300.646L176.653 199.783H8L131.994 16Z" fill="white"/>
<path d="M139.379 216.816L91.3535 288H268.006L392 104.217H261.619L185.651 216.816H139.379Z" fill="#BABABA"/>
<path d="M506.36 72H539.48V240H506.36V166.56H442.52V240H409.4V72H442.52V133.44H506.36V72ZM654.043 120H687.162V240H653.923L652.363 227.52C649.243 232.16 645.243 235.92 640.363 238.8C635.483 241.68 629.763 243.12 623.203 243.12C614.243 243.12 605.883 241.44 598.123 238.08C590.363 234.72 583.523 230.08 577.603 224.16C571.683 218.24 567.043 211.4 563.683 203.64C560.403 195.8 558.763 187.4 558.763 178.44C558.763 169.88 560.323 161.88 563.443 154.44C566.563 147 570.963 140.44 576.643 134.76C582.323 129.08 588.843 124.64 596.203 121.44C603.643 118.24 611.643 116.64 620.203 116.64C627.563 116.64 634.163 118.2 640.003 121.32C645.923 124.44 651.083 128.4 655.483 133.2L654.043 120ZM622.363 211.32C627.803 211.32 632.723 209.92 637.123 207.12C641.523 204.32 645.003 200.56 647.563 195.84C650.123 191.04 651.403 185.76 651.403 180C651.403 174.16 650.123 168.88 647.563 164.16C645.003 159.44 641.523 155.68 637.123 152.88C632.723 150.08 627.803 148.68 622.363 148.68C616.843 148.68 611.843 150.08 607.363 152.88C602.883 155.68 599.323 159.48 596.683 164.28C594.043 169 592.723 174.24 592.723 180C592.723 185.76 594.043 191.04 596.683 195.84C599.403 200.56 603.003 204.32 607.483 207.12C611.963 209.92 616.923 211.32 622.363 211.32ZM746.195 242.16C740.035 241.68 734.115 240.4 728.435 238.32C722.755 236.16 717.675 233.28 713.195 229.68C708.795 226 705.355 221.6 702.875 216.48L730.715 204.48C731.595 205.76 732.915 207.16 734.675 208.68C736.435 210.12 738.555 211.4 741.035 212.52C743.595 213.64 746.555 214.2 749.915 214.2C752.395 214.2 754.795 213.92 757.115 213.36C759.435 212.72 761.315 211.72 762.755 210.36C764.195 208.92 764.915 207.04 764.915 204.72C764.915 202.16 763.995 200.2 762.155 198.84C760.315 197.48 758.075 196.48 755.435 195.84C752.875 195.12 750.395 194.52 747.995 194.04C740.635 192.76 733.675 190.48 727.115 187.2C720.635 183.84 715.355 179.52 711.275 174.24C707.195 168.96 705.155 162.64 705.155 155.28C705.155 147.2 707.275 140.24 711.515 134.4C715.755 128.48 721.275 123.92 728.075 120.72C734.875 117.52 742.235 115.92 750.155 115.92C759.515 115.92 768.195 117.88 776.195 121.8C784.195 125.72 790.635 131.24 795.515 138.36L769.355 153.84C768.315 152.32 766.955 150.88 765.275 149.52C763.675 148.08 761.795 146.88 759.635 145.92C757.555 144.88 755.315 144.28 752.915 144.12C749.795 143.88 746.955 144.08 744.395 144.72C741.835 145.28 739.795 146.36 738.275 147.96C736.835 149.56 736.115 151.72 736.115 154.44C736.115 157.08 737.275 159.04 739.595 160.32C741.915 161.52 744.595 162.44 747.635 163.08C750.675 163.64 753.355 164.32 755.675 165.12C762.635 167.36 769.155 170.24 775.235 173.76C781.395 177.2 786.355 181.44 790.115 186.48C793.875 191.52 795.635 197.44 795.395 204.24C795.395 212.16 793.035 219.12 788.315 225.12C783.595 231.04 777.475 235.56 769.955 238.68C762.515 241.72 754.595 242.88 746.195 242.16ZM927.286 163.68V240H894.166V172.8C894.166 168.56 893.126 164.76 891.046 161.4C889.046 157.96 886.326 155.24 882.886 153.24C879.526 151.24 875.766 150.24 871.606 150.24C867.446 150.24 863.646 151.24 860.206 153.24C856.766 155.24 854.046 157.96 852.046 161.4C850.046 164.76 849.046 168.56 849.046 172.8V240H815.926L815.806 60H848.926L849.046 128.88C853.046 125.04 857.726 122.04 863.086 119.88C868.526 117.72 874.246 116.64 880.246 116.64C888.966 116.64 896.846 118.76 903.886 123C911.006 127.24 916.686 132.92 920.926 140.04C925.166 147.08 927.286 154.96 927.286 163.68ZM951.509 240V72H1057.83V105.12H984.629V133.44H1041.75V166.56H984.629V206.88H1057.83V240H951.509ZM1084.17 120H1117.29V240H1084.17V120ZM1100.97 106.2C1096.17 106.2 1092.13 104.6 1088.85 101.4C1085.57 98.2 1083.93 94.24 1083.93 89.52C1083.93 84.8 1085.57 80.84 1088.85 77.64C1092.13 74.44 1096.13 72.84 1100.85 72.84C1105.57 72.84 1109.53 74.44 1112.73 77.64C1116.01 80.84 1117.65 84.8 1117.65 89.52C1117.65 94.24 1116.05 98.2 1112.85 101.4C1109.73 104.6 1105.77 106.2 1100.97 106.2ZM1229.88 120H1263V241.68C1263 250.56 1261.2 258.56 1257.6 265.68C1254 272.88 1249.08 279.04 1242.84 284.16C1236.68 289.28 1229.56 293.2 1221.48 295.92C1213.48 298.64 1205 300 1196.04 300C1187.56 300 1179.44 298.32 1171.68 294.96C1163.92 291.68 1157.04 287.12 1151.04 281.28C1145.04 275.44 1140.36 268.72 1137 261.12L1167.24 247.32C1168.92 251.32 1171.2 254.76 1174.08 257.64C1177.04 260.52 1180.4 262.72 1184.16 264.24C1188 265.84 1191.96 266.64 1196.04 266.64C1200.44 266.64 1204.64 266.12 1208.64 265.08C1212.72 264.04 1216.36 262.48 1219.56 260.4C1222.76 258.32 1225.28 255.72 1227.12 252.6C1228.96 249.48 1229.88 245.84 1229.88 241.68V227.76C1226.2 232.32 1221.72 236.04 1216.44 238.92C1211.24 241.72 1205.2 243.12 1198.32 243.12C1189.68 243.12 1181.56 241.48 1173.96 238.2C1166.44 234.92 1159.8 230.4 1154.04 224.64C1148.28 218.8 1143.76 212.08 1140.48 204.48C1137.2 196.88 1135.56 188.72 1135.56 180C1135.56 171.28 1137.2 163.12 1140.48 155.52C1143.76 147.92 1148.28 141.24 1154.04 135.48C1159.8 129.64 1166.44 125.08 1173.96 121.8C1181.56 118.52 1189.68 116.88 1198.32 116.88C1205.2 116.88 1211.24 118.32 1216.44 121.2C1221.72 124 1226.2 127.68 1229.88 132.24V120ZM1198.8 211.32C1204.24 211.32 1209.16 209.92 1213.56 207.12C1217.96 204.24 1221.4 200.44 1223.88 195.72C1226.44 191 1227.72 185.76 1227.72 180C1227.72 174.24 1226.44 169 1223.88 164.28C1221.4 159.48 1217.96 155.68 1213.56 152.88C1209.16 150.08 1204.24 148.68 1198.8 148.68C1193.44 148.68 1188.52 150.08 1184.04 152.88C1179.64 155.68 1176.12 159.48 1173.48 164.28C1170.84 169 1169.52 174.24 1169.52 180C1169.52 185.76 1170.84 191.04 1173.48 195.84C1176.12 200.56 1179.64 204.32 1184.04 207.12C1188.52 209.92 1193.44 211.32 1198.8 211.32ZM1403.3 163.68V240H1370.18V172.8C1370.18 168.56 1369.14 164.76 1367.06 161.4C1365.06 157.96 1362.34 155.24 1358.9 153.24C1355.54 151.24 1351.78 150.24 1347.62 150.24C1343.46 150.24 1339.66 151.24 1336.22 153.24C1332.78 155.24 1330.06 157.96 1328.06 161.4C1326.06 164.76 1325.06 168.56 1325.06 172.8V240H1291.94L1291.82 60H1324.94L1325.06 128.88C1329.06 125.04 1333.74 122.04 1339.1 119.88C1344.54 117.72 1350.26 116.64 1356.26 116.64C1364.98 116.64 1372.86 118.76 1379.9 123C1387.02 127.24 1392.7 132.92 1396.94 140.04C1401.18 147.08 1403.3 154.96 1403.3 163.68ZM1492.57 153.12H1470.97V240H1437.85V153.12H1421.29V120H1437.85V82.32H1470.97V120H1492.57V153.12Z" fill="white"/>
</svg>
