<svg width="552" height="440" viewBox="0 0 552 440" fill="none" xmlns="http://www.w3.org/2000/svg">
<g clip-path="url(#clip0_10_13092)">
<g filter="url(#filter0_di_10_13092)">
<path d="M518 4H34C20.7452 4 10 14.7452 10 28V400C10 413.255 20.7452 424 34 424H518C531.255 424 542 413.255 542 400V28C542 14.7452 531.255 4 518 4Z" fill="white"/>
<path d="M518 4.5H34C21.0213 4.5 10.5 15.0213 10.5 28V400C10.5 412.979 21.0213 423.5 34 423.5H518C530.979 423.5 541.5 412.979 541.5 400V28C541.5 15.0213 530.979 4.5 518 4.5Z" stroke="#EFEFEF"/>
<path d="M53.6942 392.273C51.6083 392.273 50.3895 391 50.2958 389.203L50.2879 389.109H52.0145L52.0223 389.18C52.0926 390.039 52.6317 390.711 53.6786 390.711C54.8348 390.711 55.4598 390.016 55.4598 388.734V380.727H57.2098V388.75C57.2098 390.969 55.9051 392.273 53.6942 392.273ZM62.1161 392.141C60.4989 392.141 59.3036 391.156 59.3036 389.617V389.602C59.3036 388.086 60.4442 387.203 62.4676 387.078L64.7645 386.945V386.195C64.7645 385.266 64.1786 384.75 63.0301 384.75C62.0926 384.75 61.4754 385.094 61.2723 385.695L61.2645 385.727H59.6317L59.6395 385.672C59.8426 384.281 61.1786 383.352 63.1083 383.352C65.2411 383.352 66.4442 384.414 66.4442 386.195V392H64.7645V390.797H64.6317C64.1317 391.656 63.2411 392.141 62.1161 392.141ZM60.9911 389.547C60.9911 390.328 61.6551 390.789 62.5692 390.789C63.8348 390.789 64.7645 389.961 64.7645 388.867V388.141L62.6942 388.273C61.5223 388.344 60.9911 388.766 60.9911 389.531V389.547ZM68.8348 392V383.516H70.5301V384.805H70.6551C71.0692 383.898 71.8817 383.352 73.1161 383.352C75.0145 383.352 76.0614 384.484 76.0614 386.508V392H74.3739V386.906C74.3739 385.5 73.7879 384.805 72.5458 384.805C71.3036 384.805 70.5301 385.656 70.5301 387.023V392H68.8348Z" fill="#888888"/>
<path d="M121.364 392V380.727H128.403V382.234H123.114V385.805H127.958V387.281H123.114V392H121.364ZM134.044 392.164C131.559 392.164 130.059 390.469 130.059 387.781V387.773C130.059 385.125 131.59 383.352 133.958 383.352C136.325 383.352 137.778 385.062 137.778 387.609V388.203H131.762C131.794 389.828 132.684 390.773 134.083 390.773C135.169 390.773 135.817 390.234 136.02 389.797L136.051 389.734L137.684 389.727L137.669 389.797C137.387 390.914 136.215 392.164 134.044 392.164ZM133.965 384.742C132.809 384.742 131.934 385.531 131.786 386.992H136.098C135.965 385.477 135.114 384.742 133.965 384.742ZM144.301 392.141C143.114 392.141 142.184 391.594 141.692 390.664H141.567V392H139.872V380.188H141.567V384.859H141.692C142.145 383.945 143.137 383.367 144.301 383.367C146.458 383.367 147.817 385.062 147.817 387.75V387.766C147.817 390.43 146.442 392.141 144.301 392.141ZM143.825 390.695C145.239 390.695 146.09 389.586 146.09 387.766V387.75C146.09 385.93 145.239 384.82 143.825 384.82C142.411 384.82 141.536 385.938 141.536 387.75V387.766C141.536 389.578 142.411 390.695 143.825 390.695Z" fill="#888888"/>
<path d="M191.744 392V380.727H193.76L197.354 389.719H197.479L201.073 380.727H203.088V392H201.494V383.727H201.377L198.065 392H196.768L193.463 383.727H193.338V392H191.744ZM208.049 392.141C206.432 392.141 205.237 391.156 205.237 389.617V389.602C205.237 388.086 206.377 387.203 208.401 387.078L210.698 386.945V386.195C210.698 385.266 210.112 384.75 208.963 384.75C208.026 384.75 207.408 385.094 207.205 385.695L207.198 385.727H205.565L205.573 385.672C205.776 384.281 207.112 383.352 209.041 383.352C211.174 383.352 212.377 384.414 212.377 386.195V392H210.698V390.797H210.565C210.065 391.656 209.174 392.141 208.049 392.141ZM206.924 389.547C206.924 390.328 207.588 390.789 208.502 390.789C209.768 390.789 210.698 389.961 210.698 388.867V388.141L208.627 388.273C207.455 388.344 206.924 388.766 206.924 389.531V389.547ZM214.768 392V383.516H216.463V384.797H216.588C216.893 383.898 217.682 383.367 218.815 383.367C219.088 383.367 219.385 383.406 219.557 383.445V385.008C219.252 384.945 218.963 384.906 218.643 384.906C217.346 384.906 216.463 385.703 216.463 386.93V392H214.768Z" fill="#888888"/>
<path d="M262.789 392L266.859 380.727H268.75L272.82 392H270.977L269.961 388.953H265.648L264.625 392H262.789ZM267.734 382.703L266.117 387.547H269.492L267.867 382.703H267.734ZM274.586 394.828V383.516H276.281V384.852H276.406C276.898 383.922 277.828 383.367 279.016 383.367C281.156 383.367 282.531 385.078 282.531 387.75V387.766C282.531 390.453 281.172 392.141 279.016 392.141C277.852 392.141 276.859 391.57 276.406 390.656H276.281V394.828H274.586ZM278.539 390.695C279.953 390.695 280.805 389.586 280.805 387.766V387.75C280.805 385.922 279.953 384.82 278.539 384.82C277.125 384.82 276.25 385.938 276.25 387.75V387.766C276.25 389.578 277.125 390.695 278.539 390.695ZM284.57 392V383.516H286.266V384.797H286.391C286.695 383.898 287.484 383.367 288.617 383.367C288.891 383.367 289.188 383.406 289.359 383.445V385.008C289.055 384.945 288.766 384.906 288.445 384.906C287.148 384.906 286.266 385.703 286.266 386.93V392H284.57Z" fill="#888888"/>
<path d="M332.302 392V380.727H334.318L337.912 389.719H338.037L341.631 380.727H343.646V392H342.052V383.727H341.935L338.623 392H337.326L334.021 383.727H333.896V392H332.302ZM348.607 392.141C346.99 392.141 345.795 391.156 345.795 389.617V389.602C345.795 388.086 346.935 387.203 348.959 387.078L351.256 386.945V386.195C351.256 385.266 350.67 384.75 349.521 384.75C348.584 384.75 347.967 385.094 347.763 385.695L347.756 385.727H346.123L346.131 385.672C346.334 384.281 347.67 383.352 349.599 383.352C351.732 383.352 352.935 384.414 352.935 386.195V392H351.256V390.797H351.123C350.623 391.656 349.732 392.141 348.607 392.141ZM347.482 389.547C347.482 390.328 348.146 390.789 349.06 390.789C350.326 390.789 351.256 389.961 351.256 388.867V388.141L349.185 388.273C348.013 388.344 347.482 388.766 347.482 389.531V389.547ZM355.873 394.984C355.662 394.984 355.412 394.969 355.193 394.945V393.609C355.357 393.633 355.568 393.641 355.763 393.641C356.552 393.641 357.029 393.305 357.279 392.445L357.404 392.008L354.326 383.516H356.154L358.279 390.297H358.427L360.545 383.516H362.326L359.17 392.328C358.451 394.352 357.592 394.984 355.873 394.984Z" fill="#888888"/>
<path d="M433.143 370H402.286C393.449 370 386.286 377.163 386.286 386C386.286 394.837 393.449 402 402.286 402H433.143C441.98 402 449.143 394.837 449.143 386C449.143 377.163 441.98 370 433.143 370Z" fill="#EEEEFB"/>
<path d="M407.683 392.273C405.597 392.273 404.378 391 404.285 389.203L404.277 389.109H406.003L406.011 389.18C406.081 390.039 406.621 390.711 407.667 390.711C408.824 390.711 409.449 390.016 409.449 388.734V380.727H411.199V388.75C411.199 390.969 409.894 392.273 407.683 392.273ZM416.652 392.164C414.738 392.164 413.746 391.016 413.746 389.008V383.516H415.441V388.609C415.441 390.016 415.956 390.711 417.199 390.711C418.558 390.711 419.285 389.859 419.285 388.492V383.516H420.972V392H419.285V390.719H419.152C418.746 391.633 417.886 392.164 416.652 392.164ZM423.417 392V383.516H425.113V384.805H425.238C425.652 383.898 426.464 383.352 427.699 383.352C429.597 383.352 430.644 384.484 430.644 386.508V392H428.956V386.906C428.956 385.5 428.371 384.805 427.128 384.805C425.886 384.805 425.113 385.656 425.113 387.023V392H423.417Z" fill="#5654D4"/>
<path d="M481.189 392.273C479.103 392.273 477.884 391 477.79 389.203L477.782 389.109H479.509L479.517 389.18C479.587 390.039 480.126 390.711 481.173 390.711C482.329 390.711 482.954 390.016 482.954 388.734V380.727H484.704V388.75C484.704 390.969 483.4 392.273 481.189 392.273ZM490.157 392.164C488.243 392.164 487.251 391.016 487.251 389.008V383.516H488.946V388.609C488.946 390.016 489.462 390.711 490.704 390.711C492.064 390.711 492.79 389.859 492.79 388.492V383.516H494.478V392H492.79V390.719H492.657C492.251 391.633 491.392 392.164 490.157 392.164ZM497.001 392V380.188H498.696V392H497.001Z" fill="#888888"/>
<path d="M84.5 337H42.5C36.701 337 32 341.701 32 347.5C32 353.299 36.701 358 42.5 358H84.5C90.299 358 95 353.299 95 347.5C95 341.701 90.299 337 84.5 337Z" fill="#EFEFEF"/>
<path d="M153.716 257H114.859C108.232 257 102.859 262.373 102.859 269V346C102.859 352.627 108.232 358 114.859 358H153.716C160.344 358 165.716 352.627 165.716 346V269C165.716 262.373 160.344 257 153.716 257Z" fill="#EFEFEF"/>
<path d="M225 302H186C179.373 302 174 307.373 174 314V346C174 352.627 179.373 358 186 358H225C231.627 358 237 352.627 237 346V314C237 307.373 231.627 302 225 302Z" fill="#EFEFEF"/>
<path d="M295.427 222H256.57C249.943 222 244.57 227.373 244.57 234V346C244.57 352.627 249.943 358 256.57 358H295.427C302.055 358 307.427 352.627 307.427 346V234C307.427 227.373 302.055 222 295.427 222Z" fill="#EFEFEF"/>
<path d="M366.287 248H327.43C320.803 248 315.43 253.373 315.43 260V346C315.43 352.627 320.803 358 327.43 358H366.287C372.915 358 378.287 352.627 378.287 346V260C378.287 253.373 372.915 248 366.287 248Z" fill="#EFEFEF"/>
<path d="M437.142 262H398.285C391.658 262 386.285 267.373 386.285 274V346C386.285 352.627 391.658 358 398.285 358H437.142C443.77 358 449.142 352.627 449.142 346V274C449.142 267.373 443.77 262 437.142 262Z" fill="#5654D4"/>
<path d="M396.926 280.838V279.865C395.373 279.766 394.189 278.922 394.143 277.504L394.148 277.498L395.508 277.492L395.514 277.504C395.613 278.143 396.047 278.6 396.926 278.693V276.326L396.627 276.256C395.121 275.91 394.301 275.23 394.301 274.012V274C394.301 272.658 395.396 271.785 396.926 271.68V270.695H397.611V271.68C399.135 271.803 400.189 272.717 400.242 274.059V274.064L398.883 274.07L398.877 274.059C398.801 273.373 398.314 272.957 397.611 272.857V275.131L397.939 275.207C399.504 275.57 400.348 276.203 400.348 277.469V277.48C400.348 278.922 399.17 279.754 397.611 279.865V280.838H396.926ZM395.713 273.906C395.713 274.398 396.059 274.744 396.926 274.973V272.857C396.129 272.951 395.713 273.391 395.713 273.895V273.906ZM398.936 277.609C398.936 277.053 398.613 276.736 397.611 276.484V278.693C398.525 278.617 398.936 278.201 398.936 277.621V277.609ZM404.127 280V273.033H404.027L401.924 274.521V273.098L404.133 271.545H405.639V280H404.127ZM411.041 280.211C409.312 280.211 408.146 279.156 408.035 277.768L408.029 277.691H409.424L409.43 277.732C409.541 278.424 410.18 278.975 411.047 278.975C412.037 278.975 412.717 278.277 412.717 277.281V277.27C412.717 276.285 412.025 275.594 411.059 275.594C410.584 275.594 410.174 275.734 409.863 276.016C409.711 276.145 409.57 276.309 409.471 276.496H408.176L408.586 271.545H413.66V272.787H409.764L409.529 275.359H409.629C409.98 274.791 410.637 274.451 411.434 274.451C413.01 274.451 414.152 275.623 414.152 277.24V277.252C414.152 279.01 412.869 280.211 411.041 280.211ZM415.125 282.232L415.635 278.711H417.141L416.121 282.232H415.125ZM419.221 280L422.895 272.875V272.781H418.535V271.545H424.418V272.805L420.803 280H419.221ZM428.889 280.211C427.16 280.211 425.994 279.156 425.883 277.768L425.877 277.691H427.271L427.277 277.732C427.389 278.424 428.027 278.975 428.895 278.975C429.885 278.975 430.564 278.277 430.564 277.281V277.27C430.564 276.285 429.873 275.594 428.906 275.594C428.432 275.594 428.021 275.734 427.711 276.016C427.559 276.145 427.418 276.309 427.318 276.496H426.023L426.434 271.545H431.508V272.787H427.611L427.377 275.359H427.477C427.828 274.791 428.484 274.451 429.281 274.451C430.857 274.451 432 275.623 432 277.24V277.252C432 279.01 430.717 280.211 428.889 280.211ZM436.705 280.211C434.695 280.211 433.488 278.506 433.488 275.775V275.764C433.488 273.033 434.695 271.334 436.705 271.334C438.715 271.334 439.934 273.033 439.934 275.764V275.775C439.934 278.506 438.715 280.211 436.705 280.211ZM436.705 278.986C437.783 278.986 438.41 277.779 438.41 275.775V275.764C438.41 273.76 437.783 272.564 436.705 272.564C435.627 272.564 435.012 273.76 435.012 275.764V275.775C435.012 277.779 435.627 278.986 436.705 278.986Z" fill="white"/>
<path d="M507.998 284H469.141C462.514 284 457.141 289.373 457.141 296V346C457.141 352.627 462.514 358 469.141 358H507.998C514.626 358 519.998 352.627 519.998 346V296C519.998 289.373 514.626 284 507.998 284Z" fill="#EFEFEF"/>
<path d="M520 310.75C520.414 310.75 520.75 310.414 520.75 310C520.75 309.586 520.414 309.25 520 309.25V310.75ZM32.05 310.75C32.4642 310.75 32.8 310.414 32.8 310C32.8 309.586 32.4642 309.25 32.05 309.25V310.75ZM38.05 309.25C37.6358 309.25 37.3 309.586 37.3 310C37.3 310.414 37.6358 310.75 38.05 310.75V309.25ZM38.15 310.75C38.5642 310.75 38.9 310.414 38.9 310C38.9 309.586 38.5642 309.25 38.15 309.25V310.75ZM44.15 309.25C43.7358 309.25 43.4 309.586 43.4 310C43.4 310.414 43.7358 310.75 44.15 310.75V309.25ZM44.25 310.75C44.6642 310.75 45 310.414 45 310C45 309.586 44.6642 309.25 44.25 309.25V310.75ZM50.25 309.25C49.8358 309.25 49.5 309.586 49.5 310C49.5 310.414 49.8358 310.75 50.25 310.75V309.25ZM50.35 310.75C50.7642 310.75 51.1 310.414 51.1 310C51.1 309.586 50.7642 309.25 50.35 309.25V310.75ZM56.35 309.25C55.9358 309.25 55.6 309.586 55.6 310C55.6 310.414 55.9358 310.75 56.35 310.75V309.25ZM56.45 310.75C56.8642 310.75 57.2 310.414 57.2 310C57.2 309.586 56.8642 309.25 56.45 309.25V310.75ZM62.45 309.25C62.0358 309.25 61.7 309.586 61.7 310C61.7 310.414 62.0358 310.75 62.45 310.75V309.25ZM62.55 310.75C62.9642 310.75 63.3 310.414 63.3 310C63.3 309.586 62.9642 309.25 62.55 309.25V310.75ZM68.55 309.25C68.1358 309.25 67.8 309.586 67.8 310C67.8 310.414 68.1358 310.75 68.55 310.75V309.25ZM68.65 310.75C69.0642 310.75 69.4 310.414 69.4 310C69.4 309.586 69.0642 309.25 68.65 309.25V310.75ZM74.65 309.25C74.2358 309.25 73.9 309.586 73.9 310C73.9 310.414 74.2358 310.75 74.65 310.75V309.25ZM74.75 310.75C75.1642 310.75 75.5 310.414 75.5 310C75.5 309.586 75.1642 309.25 74.75 309.25V310.75ZM80.75 309.25C80.3358 309.25 80 309.586 80 310C80 310.414 80.3358 310.75 80.75 310.75V309.25ZM80.85 310.75C81.2642 310.75 81.6 310.414 81.6 310C81.6 309.586 81.2642 309.25 80.85 309.25V310.75ZM86.85 309.25C86.4358 309.25 86.1 309.586 86.1 310C86.1 310.414 86.4358 310.75 86.85 310.75V309.25ZM86.95 310.75C87.3642 310.75 87.7 310.414 87.7 310C87.7 309.586 87.3642 309.25 86.95 309.25V310.75ZM92.95 309.25C92.5358 309.25 92.2 309.586 92.2 310C92.2 310.414 92.5358 310.75 92.95 310.75V309.25ZM93.05 310.75C93.4642 310.75 93.8 310.414 93.8 310C93.8 309.586 93.4642 309.25 93.05 309.25V310.75ZM99.05 309.25C98.6358 309.25 98.3 309.586 98.3 310C98.3 310.414 98.6358 310.75 99.05 310.75V309.25ZM99.15 310.75C99.5642 310.75 99.9 310.414 99.9 310C99.9 309.586 99.5642 309.25 99.15 309.25V310.75ZM105.15 309.25C104.736 309.25 104.4 309.586 104.4 310C104.4 310.414 104.736 310.75 105.15 310.75V309.25ZM105.25 310.75C105.664 310.75 106 310.414 106 310C106 309.586 105.664 309.25 105.25 309.25V310.75ZM111.25 309.25C110.836 309.25 110.5 309.586 110.5 310C110.5 310.414 110.836 310.75 111.25 310.75V309.25ZM111.35 310.75C111.764 310.75 112.1 310.414 112.1 310C112.1 309.586 111.764 309.25 111.35 309.25V310.75ZM117.35 309.25C116.936 309.25 116.6 309.586 116.6 310C116.6 310.414 116.936 310.75 117.35 310.75V309.25ZM117.45 310.75C117.864 310.75 118.2 310.414 118.2 310C118.2 309.586 117.864 309.25 117.45 309.25V310.75ZM123.45 309.25C123.036 309.25 122.7 309.586 122.7 310C122.7 310.414 123.036 310.75 123.45 310.75V309.25ZM123.55 310.75C123.964 310.75 124.3 310.414 124.3 310C124.3 309.586 123.964 309.25 123.55 309.25V310.75ZM129.55 309.25C129.136 309.25 128.8 309.586 128.8 310C128.8 310.414 129.136 310.75 129.55 310.75V309.25ZM129.65 310.75C130.064 310.75 130.4 310.414 130.4 310C130.4 309.586 130.064 309.25 129.65 309.25V310.75ZM135.65 309.25C135.236 309.25 134.9 309.586 134.9 310C134.9 310.414 135.236 310.75 135.65 310.75V309.25ZM135.75 310.75C136.164 310.75 136.5 310.414 136.5 310C136.5 309.586 136.164 309.25 135.75 309.25V310.75ZM141.75 309.25C141.336 309.25 141 309.586 141 310C141 310.414 141.336 310.75 141.75 310.75V309.25ZM141.85 310.75C142.264 310.75 142.6 310.414 142.6 310C142.6 309.586 142.264 309.25 141.85 309.25V310.75ZM147.85 309.25C147.436 309.25 147.1 309.586 147.1 310C147.1 310.414 147.436 310.75 147.85 310.75V309.25ZM147.95 310.75C148.364 310.75 148.7 310.414 148.7 310C148.7 309.586 148.364 309.25 147.95 309.25V310.75ZM153.95 309.25C153.536 309.25 153.2 309.586 153.2 310C153.2 310.414 153.536 310.75 153.95 310.75V309.25ZM154.05 310.75C154.464 310.75 154.8 310.414 154.8 310C154.8 309.586 154.464 309.25 154.05 309.25V310.75ZM160.05 309.25C159.636 309.25 159.3 309.586 159.3 310C159.3 310.414 159.636 310.75 160.05 310.75V309.25ZM160.15 310.75C160.564 310.75 160.9 310.414 160.9 310C160.9 309.586 160.564 309.25 160.15 309.25V310.75ZM166.15 309.25C165.736 309.25 165.4 309.586 165.4 310C165.4 310.414 165.736 310.75 166.15 310.75V309.25ZM166.25 310.75C166.664 310.75 167 310.414 167 310C167 309.586 166.664 309.25 166.25 309.25V310.75ZM172.25 309.25C171.836 309.25 171.5 309.586 171.5 310C171.5 310.414 171.836 310.75 172.25 310.75V309.25ZM172.35 310.75C172.764 310.75 173.1 310.414 173.1 310C173.1 309.586 172.764 309.25 172.35 309.25V310.75ZM178.35 309.25C177.936 309.25 177.6 309.586 177.6 310C177.6 310.414 177.936 310.75 178.35 310.75V309.25ZM178.45 310.75C178.864 310.75 179.2 310.414 179.2 310C179.2 309.586 178.864 309.25 178.45 309.25V310.75ZM184.45 309.25C184.036 309.25 183.7 309.586 183.7 310C183.7 310.414 184.036 310.75 184.45 310.75V309.25ZM184.55 310.75C184.964 310.75 185.3 310.414 185.3 310C185.3 309.586 184.964 309.25 184.55 309.25V310.75ZM190.55 309.25C190.136 309.25 189.8 309.586 189.8 310C189.8 310.414 190.136 310.75 190.55 310.75V309.25ZM190.65 310.75C191.064 310.75 191.4 310.414 191.4 310C191.4 309.586 191.064 309.25 190.65 309.25V310.75ZM196.65 309.25C196.236 309.25 195.9 309.586 195.9 310C195.9 310.414 196.236 310.75 196.65 310.75V309.25ZM196.75 310.75C197.164 310.75 197.5 310.414 197.5 310C197.5 309.586 197.164 309.25 196.75 309.25V310.75ZM202.75 309.25C202.336 309.25 202 309.586 202 310C202 310.414 202.336 310.75 202.75 310.75V309.25ZM202.85 310.75C203.264 310.75 203.6 310.414 203.6 310C203.6 309.586 203.264 309.25 202.85 309.25V310.75ZM208.85 309.25C208.436 309.25 208.1 309.586 208.1 310C208.1 310.414 208.436 310.75 208.85 310.75V309.25ZM208.95 310.75C209.364 310.75 209.7 310.414 209.7 310C209.7 309.586 209.364 309.25 208.95 309.25V310.75ZM214.95 309.25C214.536 309.25 214.2 309.586 214.2 310C214.2 310.414 214.536 310.75 214.95 310.75V309.25ZM215.05 310.75C215.464 310.75 215.8 310.414 215.8 310C215.8 309.586 215.464 309.25 215.05 309.25V310.75ZM221.05 309.25C220.636 309.25 220.3 309.586 220.3 310C220.3 310.414 220.636 310.75 221.05 310.75V309.25ZM221.15 310.75C221.564 310.75 221.9 310.414 221.9 310C221.9 309.586 221.564 309.25 221.15 309.25V310.75ZM227.15 309.25C226.736 309.25 226.4 309.586 226.4 310C226.4 310.414 226.736 310.75 227.15 310.75V309.25ZM227.25 310.75C227.664 310.75 228 310.414 228 310C228 309.586 227.664 309.25 227.25 309.25V310.75ZM233.25 309.25C232.836 309.25 232.5 309.586 232.5 310C232.5 310.414 232.836 310.75 233.25 310.75V309.25ZM233.35 310.75C233.764 310.75 234.1 310.414 234.1 310C234.1 309.586 233.764 309.25 233.35 309.25V310.75ZM239.35 309.25C238.936 309.25 238.6 309.586 238.6 310C238.6 310.414 238.936 310.75 239.35 310.75V309.25ZM239.45 310.75C239.864 310.75 240.2 310.414 240.2 310C240.2 309.586 239.864 309.25 239.45 309.25V310.75ZM245.45 309.25C245.036 309.25 244.7 309.586 244.7 310C244.7 310.414 245.036 310.75 245.45 310.75V309.25ZM245.55 310.75C245.964 310.75 246.3 310.414 246.3 310C246.3 309.586 245.964 309.25 245.55 309.25V310.75ZM251.55 309.25C251.136 309.25 250.8 309.586 250.8 310C250.8 310.414 251.136 310.75 251.55 310.75V309.25ZM251.65 310.75C252.064 310.75 252.4 310.414 252.4 310C252.4 309.586 252.064 309.25 251.65 309.25V310.75ZM257.65 309.25C257.236 309.25 256.9 309.586 256.9 310C256.9 310.414 257.236 310.75 257.65 310.75V309.25ZM257.75 310.75C258.164 310.75 258.5 310.414 258.5 310C258.5 309.586 258.164 309.25 257.75 309.25V310.75ZM263.75 309.25C263.336 309.25 263 309.586 263 310C263 310.414 263.336 310.75 263.75 310.75V309.25ZM263.85 310.75C264.264 310.75 264.6 310.414 264.6 310C264.6 309.586 264.264 309.25 263.85 309.25V310.75ZM269.85 309.25C269.436 309.25 269.1 309.586 269.1 310C269.1 310.414 269.436 310.75 269.85 310.75V309.25ZM269.95 310.75C270.364 310.75 270.7 310.414 270.7 310C270.7 309.586 270.364 309.25 269.95 309.25V310.75ZM275.95 309.25C275.536 309.25 275.2 309.586 275.2 310C275.2 310.414 275.536 310.75 275.95 310.75V309.25ZM276.05 310.75C276.464 310.75 276.8 310.414 276.8 310C276.8 309.586 276.464 309.25 276.05 309.25V310.75ZM282.05 309.25C281.636 309.25 281.3 309.586 281.3 310C281.3 310.414 281.636 310.75 282.05 310.75V309.25ZM282.15 310.75C282.564 310.75 282.9 310.414 282.9 310C282.9 309.586 282.564 309.25 282.15 309.25V310.75ZM288.15 309.25C287.736 309.25 287.4 309.586 287.4 310C287.4 310.414 287.736 310.75 288.15 310.75V309.25ZM288.25 310.75C288.664 310.75 289 310.414 289 310C289 309.586 288.664 309.25 288.25 309.25V310.75ZM294.25 309.25C293.836 309.25 293.5 309.586 293.5 310C293.5 310.414 293.836 310.75 294.25 310.75V309.25ZM294.35 310.75C294.764 310.75 295.1 310.414 295.1 310C295.1 309.586 294.764 309.25 294.35 309.25V310.75ZM300.35 309.25C299.936 309.25 299.6 309.586 299.6 310C299.6 310.414 299.936 310.75 300.35 310.75V309.25ZM300.45 310.75C300.864 310.75 301.2 310.414 301.2 310C301.2 309.586 300.864 309.25 300.45 309.25V310.75ZM306.45 309.25C306.036 309.25 305.7 309.586 305.7 310C305.7 310.414 306.036 310.75 306.45 310.75V309.25ZM306.55 310.75C306.964 310.75 307.3 310.414 307.3 310C307.3 309.586 306.964 309.25 306.55 309.25V310.75ZM312.55 309.25C312.136 309.25 311.8 309.586 311.8 310C311.8 310.414 312.136 310.75 312.55 310.75V309.25ZM312.65 310.75C313.064 310.75 313.4 310.414 313.4 310C313.4 309.586 313.064 309.25 312.65 309.25V310.75ZM318.65 309.25C318.236 309.25 317.9 309.586 317.9 310C317.9 310.414 318.236 310.75 318.65 310.75V309.25ZM318.75 310.75C319.164 310.75 319.5 310.414 319.5 310C319.5 309.586 319.164 309.25 318.75 309.25V310.75ZM324.75 309.25C324.336 309.25 324 309.586 324 310C324 310.414 324.336 310.75 324.75 310.75V309.25ZM324.85 310.75C325.264 310.75 325.6 310.414 325.6 310C325.6 309.586 325.264 309.25 324.85 309.25V310.75ZM330.85 309.25C330.436 309.25 330.1 309.586 330.1 310C330.1 310.414 330.436 310.75 330.85 310.75V309.25ZM330.95 310.75C331.364 310.75 331.7 310.414 331.7 310C331.7 309.586 331.364 309.25 330.95 309.25V310.75ZM336.95 309.25C336.536 309.25 336.2 309.586 336.2 310C336.2 310.414 336.536 310.75 336.95 310.75V309.25ZM337.05 310.75C337.464 310.75 337.8 310.414 337.8 310C337.8 309.586 337.464 309.25 337.05 309.25V310.75ZM343.05 309.25C342.636 309.25 342.3 309.586 342.3 310C342.3 310.414 342.636 310.75 343.05 310.75V309.25ZM343.15 310.75C343.564 310.75 343.9 310.414 343.9 310C343.9 309.586 343.564 309.25 343.15 309.25V310.75ZM349.15 309.25C348.736 309.25 348.4 309.586 348.4 310C348.4 310.414 348.736 310.75 349.15 310.75V309.25ZM349.25 310.75C349.664 310.75 350 310.414 350 310C350 309.586 349.664 309.25 349.25 309.25V310.75ZM355.25 309.25C354.836 309.25 354.5 309.586 354.5 310C354.5 310.414 354.836 310.75 355.25 310.75V309.25ZM355.35 310.75C355.764 310.75 356.1 310.414 356.1 310C356.1 309.586 355.764 309.25 355.35 309.25V310.75ZM361.35 309.25C360.936 309.25 360.6 309.586 360.6 310C360.6 310.414 360.936 310.75 361.35 310.75V309.25ZM361.45 310.75C361.864 310.75 362.2 310.414 362.2 310C362.2 309.586 361.864 309.25 361.45 309.25V310.75ZM367.45 309.25C367.036 309.25 366.7 309.586 366.7 310C366.7 310.414 367.036 310.75 367.45 310.75V309.25ZM367.55 310.75C367.964 310.75 368.3 310.414 368.3 310C368.3 309.586 367.964 309.25 367.55 309.25V310.75ZM373.55 309.25C373.136 309.25 372.8 309.586 372.8 310C372.8 310.414 373.136 310.75 373.55 310.75V309.25ZM373.65 310.75C374.064 310.75 374.4 310.414 374.4 310C374.4 309.586 374.064 309.25 373.65 309.25V310.75ZM379.65 309.25C379.236 309.25 378.9 309.586 378.9 310C378.9 310.414 379.236 310.75 379.65 310.75V309.25ZM379.75 310.75C380.164 310.75 380.5 310.414 380.5 310C380.5 309.586 380.164 309.25 379.75 309.25V310.75ZM385.75 309.25C385.336 309.25 385 309.586 385 310C385 310.414 385.336 310.75 385.75 310.75V309.25ZM385.85 310.75C386.264 310.75 386.6 310.414 386.6 310C386.6 309.586 386.264 309.25 385.85 309.25V310.75ZM391.85 309.25C391.436 309.25 391.1 309.586 391.1 310C391.1 310.414 391.436 310.75 391.85 310.75V309.25ZM391.95 310.75C392.364 310.75 392.7 310.414 392.7 310C392.7 309.586 392.364 309.25 391.95 309.25V310.75ZM397.95 309.25C397.536 309.25 397.2 309.586 397.2 310C397.2 310.414 397.536 310.75 397.95 310.75V309.25ZM398.05 310.75C398.464 310.75 398.8 310.414 398.8 310C398.8 309.586 398.464 309.25 398.05 309.25V310.75ZM404.05 309.25C403.636 309.25 403.3 309.586 403.3 310C403.3 310.414 403.636 310.75 404.05 310.75V309.25ZM404.15 310.75C404.564 310.75 404.9 310.414 404.9 310C404.9 309.586 404.564 309.25 404.15 309.25V310.75ZM410.15 309.25C409.736 309.25 409.4 309.586 409.4 310C409.4 310.414 409.736 310.75 410.15 310.75V309.25ZM410.25 310.75C410.664 310.75 411 310.414 411 310C411 309.586 410.664 309.25 410.25 309.25V310.75ZM416.25 309.25C415.836 309.25 415.5 309.586 415.5 310C415.5 310.414 415.836 310.75 416.25 310.75V309.25ZM416.35 310.75C416.764 310.75 417.1 310.414 417.1 310C417.1 309.586 416.764 309.25 416.35 309.25V310.75ZM422.35 309.25C421.936 309.25 421.6 309.586 421.6 310C421.6 310.414 421.936 310.75 422.35 310.75V309.25ZM422.45 310.75C422.864 310.75 423.2 310.414 423.2 310C423.2 309.586 422.864 309.25 422.45 309.25V310.75ZM428.45 309.25C428.036 309.25 427.7 309.586 427.7 310C427.7 310.414 428.036 310.75 428.45 310.75V309.25ZM428.55 310.75C428.964 310.75 429.3 310.414 429.3 310C429.3 309.586 428.964 309.25 428.55 309.25V310.75ZM434.55 309.25C434.136 309.25 433.8 309.586 433.8 310C433.8 310.414 434.136 310.75 434.55 310.75V309.25ZM434.65 310.75C435.064 310.75 435.4 310.414 435.4 310C435.4 309.586 435.064 309.25 434.65 309.25V310.75ZM440.65 309.25C440.236 309.25 439.9 309.586 439.9 310C439.9 310.414 440.236 310.75 440.65 310.75V309.25ZM440.75 310.75C441.164 310.75 441.5 310.414 441.5 310C441.5 309.586 441.164 309.25 440.75 309.25V310.75ZM446.75 309.25C446.336 309.25 446 309.586 446 310C446 310.414 446.336 310.75 446.75 310.75V309.25ZM446.85 310.75C447.264 310.75 447.6 310.414 447.6 310C447.6 309.586 447.264 309.25 446.85 309.25V310.75ZM452.85 309.25C452.436 309.25 452.1 309.586 452.1 310C452.1 310.414 452.436 310.75 452.85 310.75V309.25ZM452.95 310.75C453.365 310.75 453.7 310.414 453.7 310C453.7 309.586 453.365 309.25 452.95 309.25V310.75ZM458.95 309.25C458.536 309.25 458.2 309.586 458.2 310C458.2 310.414 458.536 310.75 458.95 310.75V309.25ZM459.05 310.75C459.464 310.75 459.8 310.414 459.8 310C459.8 309.586 459.464 309.25 459.05 309.25V310.75ZM465.05 309.25C464.636 309.25 464.3 309.586 464.3 310C464.3 310.414 464.636 310.75 465.05 310.75V309.25ZM465.15 310.75C465.564 310.75 465.9 310.414 465.9 310C465.9 309.586 465.564 309.25 465.15 309.25V310.75ZM471.15 309.25C470.736 309.25 470.4 309.586 470.4 310C470.4 310.414 470.736 310.75 471.15 310.75V309.25ZM471.25 310.75C471.665 310.75 472 310.414 472 310C472 309.586 471.665 309.25 471.25 309.25V310.75ZM477.25 309.25C476.836 309.25 476.5 309.586 476.5 310C476.5 310.414 476.836 310.75 477.25 310.75V309.25ZM477.35 310.75C477.765 310.75 478.1 310.414 478.1 310C478.1 309.586 477.765 309.25 477.35 309.25V310.75ZM483.35 309.25C482.936 309.25 482.6 309.586 482.6 310C482.6 310.414 482.936 310.75 483.35 310.75V309.25ZM483.45 310.75C483.865 310.75 484.2 310.414 484.2 310C484.2 309.586 483.865 309.25 483.45 309.25V310.75ZM489.45 309.25C489.036 309.25 488.7 309.586 488.7 310C488.7 310.414 489.036 310.75 489.45 310.75V309.25ZM489.55 310.75C489.965 310.75 490.3 310.414 490.3 310C490.3 309.586 489.965 309.25 489.55 309.25V310.75ZM495.55 309.25C495.136 309.25 494.8 309.586 494.8 310C494.8 310.414 495.136 310.75 495.55 310.75V309.25ZM495.65 310.75C496.065 310.75 496.4 310.414 496.4 310C496.4 309.586 496.065 309.25 495.65 309.25V310.75ZM501.65 309.25C501.236 309.25 500.9 309.586 500.9 310C500.9 310.414 501.236 310.75 501.65 310.75V309.25ZM501.75 310.75C502.165 310.75 502.5 310.414 502.5 310C502.5 309.586 502.165 309.25 501.75 309.25V310.75ZM507.75 309.25C507.336 309.25 507 309.586 507 310C507 310.414 507.336 310.75 507.75 310.75V309.25ZM507.85 310.75C508.265 310.75 508.6 310.414 508.6 310C508.6 309.586 508.265 309.25 507.85 309.25V310.75ZM513.85 309.25C513.436 309.25 513.1 309.586 513.1 310C513.1 310.414 513.436 310.75 513.85 310.75V309.25ZM513.95 310.75C514.365 310.75 514.7 310.414 514.7 310C514.7 309.586 514.365 309.25 513.95 309.25V310.75ZM519.95 309.25C519.536 309.25 519.2 309.586 519.2 310C519.2 310.414 519.536 310.75 519.95 310.75V309.25ZM32 310.75H32.05V309.25H32V310.75ZM38.05 310.75H38.15V309.25H38.05V310.75ZM44.15 310.75H44.25V309.25H44.15V310.75ZM50.25 310.75H50.35V309.25H50.25V310.75ZM56.35 310.75H56.45V309.25H56.35V310.75ZM62.45 310.75H62.55V309.25H62.45V310.75ZM68.55 310.75H68.65V309.25H68.55V310.75ZM74.65 310.75H74.75V309.25H74.65V310.75ZM80.75 310.75H80.85V309.25H80.75V310.75ZM86.85 310.75H86.95V309.25H86.85V310.75ZM92.95 310.75H93.05V309.25H92.95V310.75ZM99.05 310.75H99.15V309.25H99.05V310.75ZM105.15 310.75H105.25V309.25H105.15V310.75ZM111.25 310.75H111.35V309.25H111.25V310.75ZM117.35 310.75H117.45V309.25H117.35V310.75ZM123.45 310.75H123.55V309.25H123.45V310.75ZM129.55 310.75H129.65V309.25H129.55V310.75ZM135.65 310.75H135.75V309.25H135.65V310.75ZM141.75 310.75H141.85V309.25H141.75V310.75ZM147.85 310.75H147.95V309.25H147.85V310.75ZM153.95 310.75H154.05V309.25H153.95V310.75ZM160.05 310.75H160.15V309.25H160.05V310.75ZM166.15 310.75H166.25V309.25H166.15V310.75ZM172.25 310.75H172.35V309.25H172.25V310.75ZM178.35 310.75H178.45V309.25H178.35V310.75ZM184.45 310.75H184.55V309.25H184.45V310.75ZM190.55 310.75H190.65V309.25H190.55V310.75ZM196.65 310.75H196.75V309.25H196.65V310.75ZM202.75 310.75H202.85V309.25H202.75V310.75ZM208.85 310.75H208.95V309.25H208.85V310.75ZM214.95 310.75H215.05V309.25H214.95V310.75ZM221.05 310.75H221.15V309.25H221.05V310.75ZM227.15 310.75H227.25V309.25H227.15V310.75ZM233.25 310.75H233.35V309.25H233.25V310.75ZM239.35 310.75H239.45V309.25H239.35V310.75ZM245.45 310.75H245.55V309.25H245.45V310.75ZM251.55 310.75H251.65V309.25H251.55V310.75ZM257.65 310.75H257.75V309.25H257.65V310.75ZM263.75 310.75H263.85V309.25H263.75V310.75ZM269.85 310.75H269.95V309.25H269.85V310.75ZM275.95 310.75H276.05V309.25H275.95V310.75ZM282.05 310.75H282.15V309.25H282.05V310.75ZM288.15 310.75H288.25V309.25H288.15V310.75ZM294.25 310.75H294.35V309.25H294.25V310.75ZM300.35 310.75H300.45V309.25H300.35V310.75ZM306.45 310.75H306.55V309.25H306.45V310.75ZM312.55 310.75H312.65V309.25H312.55V310.75ZM318.65 310.75H318.75V309.25H318.65V310.75ZM324.75 310.75H324.85V309.25H324.75V310.75ZM330.85 310.75H330.95V309.25H330.85V310.75ZM336.95 310.75H337.05V309.25H336.95V310.75ZM343.05 310.75H343.15V309.25H343.05V310.75ZM349.15 310.75H349.25V309.25H349.15V310.75ZM355.25 310.75H355.35V309.25H355.25V310.75ZM361.35 310.75H361.45V309.25H361.35V310.75ZM367.45 310.75H367.55V309.25H367.45V310.75ZM373.55 310.75H373.65V309.25H373.55V310.75ZM379.65 310.75H379.75V309.25H379.65V310.75ZM385.75 310.75H385.85V309.25H385.75V310.75ZM391.85 310.75H391.95V309.25H391.85V310.75ZM397.95 310.75H398.05V309.25H397.95V310.75ZM404.05 310.75H404.15V309.25H404.05V310.75ZM410.15 310.75H410.25V309.25H410.15V310.75ZM416.25 310.75H416.35V309.25H416.25V310.75ZM422.35 310.75H422.45V309.25H422.35V310.75ZM428.45 310.75H428.55V309.25H428.45V310.75ZM434.55 310.75H434.65V309.25H434.55V310.75ZM440.65 310.75H440.75V309.25H440.65V310.75ZM446.75 310.75H446.85V309.25H446.75V310.75ZM452.85 310.75H452.95V309.25H452.85V310.75ZM458.95 310.75H459.05V309.25H458.95V310.75ZM465.05 310.75H465.15V309.25H465.05V310.75ZM471.15 310.75H471.25V309.25H471.15V310.75ZM477.25 310.75H477.35V309.25H477.25V310.75ZM483.35 310.75H483.45V309.25H483.35V310.75ZM489.45 310.75H489.55V309.25H489.45V310.75ZM495.55 310.75H495.65V309.25H495.55V310.75ZM501.65 310.75H501.75V309.25H501.65V310.75ZM507.75 310.75H507.85V309.25H507.75V310.75ZM513.85 310.75H513.95V309.25H513.85V310.75ZM519.95 310.75H520V309.25H519.95V310.75Z" fill="#101010"/>
<path d="M44.6943 141.933V138.528C39.2598 138.18 35.1172 135.227 34.9531 130.264L34.9736 130.243L39.7314 130.223L39.752 130.264C40.1006 132.499 41.6182 134.099 44.6943 134.427V126.142L43.6484 125.896C38.3779 124.686 35.5068 122.307 35.5068 118.041V118C35.5068 113.304 39.3418 110.248 44.6943 109.879V106.434H47.0938V109.879C52.4258 110.31 56.1172 113.509 56.3018 118.205V118.226L51.5439 118.246L51.5234 118.205C51.2568 115.806 49.5547 114.35 47.0938 114.001V121.958L48.2422 122.225C53.7178 123.496 56.6709 125.711 56.6709 130.141V130.182C56.6709 135.227 52.5488 138.139 47.0938 138.528V141.933H44.6943ZM40.4492 117.672C40.4492 119.395 41.6592 120.604 44.6943 121.404V114.001C41.9053 114.329 40.4492 115.867 40.4492 117.631V117.672ZM51.7285 130.633C51.7285 128.685 50.6006 127.577 47.0938 126.695V134.427C50.293 134.16 51.7285 132.704 51.7285 130.674V130.633ZM61.3992 139V135.432L71.1199 125.506C75.1394 121.445 76.2673 119.948 76.2673 117.672V117.61C76.2673 114.883 74.4011 112.914 71.325 112.914C68.1873 112.914 66.075 114.985 66.075 118.041L66.0545 118.123L61.1326 118.103L61.1121 118.041C61.1121 112.524 65.4187 108.669 71.5916 108.669C77.3543 108.669 81.4968 112.176 81.4968 117.159V117.221C81.4968 120.584 79.8767 123.25 74.4832 128.438L68.5564 134.181V134.611H81.948V139H61.3992ZM97.4019 139.738C90.3677 139.738 86.1431 133.771 86.1431 124.214V124.173C86.1431 114.616 90.3677 108.669 97.4019 108.669C104.436 108.669 108.702 114.616 108.702 124.173V124.214C108.702 133.771 104.436 139.738 97.4019 139.738ZM97.4019 135.452C101.175 135.452 103.37 131.228 103.37 124.214V124.173C103.37 117.159 101.175 112.976 97.4019 112.976C93.6284 112.976 91.4751 117.159 91.4751 124.173V124.214C91.4751 131.228 93.6284 135.452 97.4019 135.452ZM110.6 146.813L112.384 134.488H117.655L114.086 146.813H110.6ZM123.244 139V135.432L132.965 125.506C136.984 121.445 138.112 119.948 138.112 117.672V117.61C138.112 114.883 136.246 112.914 133.17 112.914C130.032 112.914 127.92 114.985 127.92 118.041L127.899 118.123L122.978 118.103L122.957 118.041C122.957 112.524 127.264 108.669 133.437 108.669C139.199 108.669 143.342 112.176 143.342 117.159V117.221C143.342 120.584 141.722 123.25 136.328 128.438L130.401 134.181V134.611H143.793V139H123.244ZM161.646 139V133.319H147.168V128.992C151.003 122.327 155.207 115.519 159.226 109.407H166.712V128.951H170.69V133.319H166.712V139H161.646ZM152.09 129.074H161.728V113.632H161.421C158.386 118.267 154.961 123.742 152.09 128.767V129.074ZM185.631 139.738C179.582 139.738 175.501 136.047 175.111 131.187L175.09 130.92H179.971L179.992 131.063C180.381 133.483 182.617 135.411 185.652 135.411C189.118 135.411 191.497 132.971 191.497 129.484V129.443C191.497 125.998 189.077 123.578 185.693 123.578C184.032 123.578 182.596 124.07 181.509 125.055C180.976 125.506 180.484 126.08 180.135 126.736H175.603L177.039 109.407H194.798V113.755H181.161L180.34 122.758H180.689C181.919 120.769 184.216 119.579 187.005 119.579C192.522 119.579 196.521 123.681 196.521 129.341V129.382C196.521 135.534 192.03 139.738 185.631 139.738Z" fill="#080808"/>
<path d="M73 158.5H44C37.6487 158.5 32.5 163.649 32.5 170C32.5 176.351 37.6487 181.5 44 181.5H73C79.3513 181.5 84.5 176.351 84.5 170C84.5 163.649 79.3513 158.5 73 158.5Z" fill="#E8FFF4"/>
<path d="M73 158.5H44C37.6487 158.5 32.5 163.649 32.5 170C32.5 176.351 37.6487 181.5 44 181.5H73C79.3513 181.5 84.5 176.351 84.5 170C84.5 163.649 79.3513 158.5 73 158.5Z" stroke="#8FE7BE"/>
<path d="M44.6686 167.219V175.334H43.3352V167.219L39.7592 170.795L38.8164 169.852L44.0019 164.667L49.1873 169.852L48.2445 170.795L44.6686 167.219Z" fill="#1DBF73"/>
<path d="M55.4795 175V166.715H55.3633L52.8818 168.485V166.981L55.4795 165.136H57.0107V175H55.4795ZM59.8066 175V173.961L63.0811 170.522C64.3867 169.162 64.7627 168.656 64.7627 167.856V167.836C64.7627 166.872 64.0996 166.161 63.0195 166.161C61.9121 166.161 61.1738 166.886 61.1738 167.966L61.167 167.986H59.7314L59.7178 167.973C59.7246 166.168 61.1191 164.896 63.1016 164.896C64.9404 164.896 66.2939 166.065 66.2939 167.692V167.713C66.2939 168.834 65.7744 169.695 63.9834 171.473L61.8916 173.558V173.694H66.4512V175H59.8066ZM70.4297 170.406C69.1035 170.406 68.2969 169.36 68.2969 167.699V167.692C68.2969 166.031 69.1035 164.999 70.4297 164.999C71.7559 164.999 72.5625 166.031 72.5625 167.692V167.699C72.5625 169.36 71.7559 170.406 70.4297 170.406ZM71.4482 175H70.1699L76.8555 165.136H78.1338L71.4482 175ZM70.4297 169.49C71.0791 169.49 71.4551 168.827 71.4551 167.699V167.692C71.4551 166.571 71.0791 165.915 70.4297 165.915C69.7803 165.915 69.4111 166.571 69.4111 167.692V167.699C69.4111 168.827 69.7803 169.49 70.4297 169.49ZM77.8672 175.137C76.541 175.137 75.7344 174.098 75.7344 172.437V172.43C75.7344 170.769 76.541 169.729 77.8672 169.729C79.1934 169.729 80 170.769 80 172.43V172.437C80 174.098 79.1934 175.137 77.8672 175.137ZM77.8672 174.221C78.5166 174.221 78.8857 173.558 78.8857 172.437V172.43C78.8857 171.302 78.5166 170.646 77.8672 170.646C77.2178 170.646 76.8486 171.302 76.8486 172.43V172.437C76.8486 173.558 77.2178 174.221 77.8672 174.221Z" fill="#1DBF73"/>
<path d="M96.5547 176L93.4844 167.516H95.2812L97.3984 174.281H97.5312L99.6406 167.516H101.422L98.3594 176H96.5547ZM105.977 176.164C103.93 176.164 102.633 175.203 102.469 173.781V173.773H104.164L104.172 173.781C104.383 174.422 105 174.852 106.008 174.852C107.055 174.852 107.781 174.375 107.781 173.68V173.664C107.781 173.133 107.383 172.773 106.398 172.547L105.047 172.234C103.445 171.867 102.703 171.141 102.703 169.898V169.891C102.703 168.414 104.078 167.352 106 167.352C107.938 167.352 109.18 168.32 109.328 169.703V169.711H107.711V169.695C107.547 169.102 106.945 168.656 105.992 168.656C105.062 168.656 104.391 169.117 104.391 169.797V169.812C104.391 170.344 104.781 170.672 105.734 170.898L107.078 171.203C108.711 171.586 109.492 172.281 109.492 173.508V173.523C109.492 175.094 107.992 176.164 105.977 176.164ZM115.969 176V164.188H117.664V176H115.969ZM122.516 176.141C120.898 176.141 119.703 175.156 119.703 173.617V173.602C119.703 172.086 120.844 171.203 122.867 171.078L125.164 170.945V170.195C125.164 169.266 124.578 168.75 123.43 168.75C122.492 168.75 121.875 169.094 121.672 169.695L121.664 169.727H120.031L120.039 169.672C120.242 168.281 121.578 167.352 123.508 167.352C125.641 167.352 126.844 168.414 126.844 170.195V176H125.164V174.797H125.031C124.531 175.656 123.641 176.141 122.516 176.141ZM121.391 173.547C121.391 174.328 122.055 174.789 122.969 174.789C124.234 174.789 125.164 173.961 125.164 172.867V172.141L123.094 172.273C121.922 172.344 121.391 172.766 121.391 173.531V173.547ZM132.32 176.164C130.273 176.164 128.977 175.203 128.812 173.781V173.773H130.508L130.516 173.781C130.727 174.422 131.344 174.852 132.352 174.852C133.398 174.852 134.125 174.375 134.125 173.68V173.664C134.125 173.133 133.727 172.773 132.742 172.547L131.391 172.234C129.789 171.867 129.047 171.141 129.047 169.898V169.891C129.047 168.414 130.422 167.352 132.344 167.352C134.281 167.352 135.523 168.32 135.672 169.703V169.711H134.055V169.695C133.891 169.102 133.289 168.656 132.336 168.656C131.406 168.656 130.734 169.117 130.734 169.797V169.812C130.734 170.344 131.125 170.672 132.078 170.898L133.422 171.203C135.055 171.586 135.836 172.281 135.836 173.508V173.523C135.836 175.094 134.336 176.164 132.32 176.164ZM141 176.055C139.133 176.055 138.367 175.398 138.367 173.766V168.852H137.039V167.516H138.367V165.375H140.094V167.516H141.914V168.852H140.094V173.359C140.094 174.273 140.438 174.648 141.273 174.648C141.531 174.648 141.68 174.641 141.914 174.617V175.969C141.641 176.016 141.328 176.055 141 176.055ZM149.094 178.984C148.883 178.984 148.633 178.969 148.414 178.945V177.609C148.578 177.633 148.789 177.641 148.984 177.641C149.773 177.641 150.25 177.305 150.5 176.445L150.625 176.008L147.547 167.516H149.375L151.5 174.297H151.648L153.766 167.516H155.547L152.391 176.328C151.672 178.352 150.812 178.984 149.094 178.984ZM160.5 176.164C158.016 176.164 156.516 174.469 156.516 171.781V171.773C156.516 169.125 158.047 167.352 160.414 167.352C162.781 167.352 164.234 169.062 164.234 171.609V172.203H158.219C158.25 173.828 159.141 174.773 160.539 174.773C161.625 174.773 162.273 174.234 162.477 173.797L162.508 173.734L164.141 173.727L164.125 173.797C163.844 174.914 162.672 176.164 160.5 176.164ZM160.422 168.742C159.266 168.742 158.391 169.531 158.242 170.992H162.555C162.422 169.477 161.57 168.742 160.422 168.742ZM168.578 176.141C166.961 176.141 165.766 175.156 165.766 173.617V173.602C165.766 172.086 166.906 171.203 168.93 171.078L171.227 170.945V170.195C171.227 169.266 170.641 168.75 169.492 168.75C168.555 168.75 167.938 169.094 167.734 169.695L167.727 169.727H166.094L166.102 169.672C166.305 168.281 167.641 167.352 169.57 167.352C171.703 167.352 172.906 168.414 172.906 170.195V176H171.227V174.797H171.094C170.594 175.656 169.703 176.141 168.578 176.141ZM167.453 173.547C167.453 174.328 168.117 174.789 169.031 174.789C170.297 174.789 171.227 173.961 171.227 172.867V172.141L169.156 172.273C167.984 172.344 167.453 172.766 167.453 173.531V173.547ZM175.297 176V167.516H176.992V168.797H177.117C177.422 167.898 178.211 167.367 179.344 167.367C179.617 167.367 179.914 167.406 180.086 167.445V169.008C179.781 168.945 179.492 168.906 179.172 168.906C177.875 168.906 176.992 169.703 176.992 170.93V176H175.297ZM184.617 176.164C182.57 176.164 181.273 175.203 181.109 173.781V173.773H182.805L182.812 173.781C183.023 174.422 183.641 174.852 184.648 174.852C185.695 174.852 186.422 174.375 186.422 173.68V173.664C186.422 173.133 186.023 172.773 185.039 172.547L183.688 172.234C182.086 171.867 181.344 171.141 181.344 169.898V169.891C181.344 168.414 182.719 167.352 184.641 167.352C186.578 167.352 187.82 168.32 187.969 169.703V169.711H186.352V169.695C186.188 169.102 185.586 168.656 184.633 168.656C183.703 168.656 183.031 169.117 183.031 169.797V169.812C183.031 170.344 183.422 170.672 184.375 170.898L185.719 171.203C187.352 171.586 188.133 172.281 188.133 173.508V173.523C188.133 175.094 186.633 176.164 184.617 176.164Z" fill="#888888"/>
<path d="M32 303C32 300.791 33.7909 299 36 299H103V321H36C33.7909 321 32 319.209 32 317V303Z" fill="#030303"/>
<path d="M36.4785 315L40.04 305.136H41.6943L45.2559 315H43.6426L42.7539 312.334H38.9805L38.085 315H36.4785ZM40.8057 306.865L39.3906 311.104H42.3438L40.9219 306.865H40.8057ZM47.915 315L45.2285 307.576H46.8008L48.6533 313.496H48.7695L50.6152 307.576H52.1738L49.4941 315H47.915ZM56.5146 317.618C54.6279 317.618 53.4658 316.791 53.2881 315.554L53.3018 315.54H54.7988L54.8057 315.554C54.9287 316.066 55.5303 316.429 56.5352 316.429C57.7588 316.429 58.4834 315.854 58.4834 314.843V313.38H58.374C57.9229 314.187 57.1025 314.638 56.084 314.638C54.1768 314.638 53.001 313.168 53.001 311.076V311.062C53.001 308.943 54.1836 307.446 56.1113 307.446C57.1504 307.446 57.957 307.959 58.3877 308.793H58.4766V307.576H59.9531V314.85C59.9531 316.538 58.6201 317.618 56.5146 317.618ZM56.4941 313.414C57.752 313.414 58.5107 312.457 58.5107 311.069V311.056C58.5107 309.675 57.7451 308.704 56.4941 308.704C55.2295 308.704 54.5186 309.675 54.5186 311.056V311.069C54.5186 312.45 55.2295 313.414 56.4941 313.414ZM69.5576 315.239C67.5752 315.239 65.7158 313.845 65.7158 310.215V310.201C65.7158 306.865 67.1719 304.896 69.6123 304.896C71.3555 304.896 72.6543 305.922 72.9824 307.412L72.9961 307.494H71.4785L71.4512 307.426C71.1777 306.674 70.5352 306.195 69.6055 306.195C67.9443 306.195 67.2539 307.815 67.1787 309.784C67.1719 309.859 67.1719 309.935 67.1719 310.01H67.3018C67.6641 309.217 68.5527 308.513 69.8994 308.513C71.7793 308.513 73.126 309.907 73.126 311.794V311.808C73.126 313.79 71.6289 315.239 69.5576 315.239ZM67.4727 311.808C67.4727 313.011 68.3818 313.954 69.5439 313.954C70.6992 313.954 71.6152 313.031 71.6152 311.849V311.835C71.6152 310.625 70.7539 309.75 69.5576 309.75C68.375 309.75 67.4727 310.611 67.4727 311.801V311.808ZM75.71 315.103C75.1426 315.103 74.7051 314.665 74.7051 314.111C74.7051 313.551 75.1426 313.113 75.71 313.113C76.2773 313.113 76.708 313.551 76.708 314.111C76.708 314.665 76.2773 315.103 75.71 315.103ZM82.0059 315.185C79.8184 315.185 78.2734 314.009 78.2734 312.334V312.32C78.2734 311.076 79.1689 310.085 80.4609 309.805V309.771C79.3535 309.456 78.6289 308.629 78.6289 307.583V307.569C78.6289 306.059 80.0439 304.951 82.0059 304.951C83.9746 304.951 85.3828 306.059 85.3828 307.569V307.583C85.3828 308.629 84.665 309.456 83.5576 309.771V309.805C84.8496 310.085 85.7451 311.076 85.7451 312.32V312.334C85.7451 314.009 84.2002 315.185 82.0059 315.185ZM82.0059 309.258C83.1133 309.258 83.8652 308.615 83.8652 307.713V307.699C83.8652 306.797 83.1064 306.168 82.0059 306.168C80.9053 306.168 80.1465 306.797 80.1465 307.699V307.713C80.1465 308.615 80.9053 309.258 82.0059 309.258ZM82.0059 313.954C83.2705 313.954 84.166 313.236 84.166 312.238V312.225C84.166 311.213 83.2773 310.481 82.0059 310.481C80.7412 310.481 79.8525 311.213 79.8525 312.225V312.238C79.8525 313.236 80.748 313.954 82.0059 313.954ZM89.6621 310.406C88.3359 310.406 87.5293 309.36 87.5293 307.699V307.692C87.5293 306.031 88.3359 304.999 89.6621 304.999C90.9883 304.999 91.7949 306.031 91.7949 307.692V307.699C91.7949 309.36 90.9883 310.406 89.6621 310.406ZM90.6807 315H89.4023L96.0879 305.136H97.3662L90.6807 315ZM89.6621 309.49C90.3115 309.49 90.6875 308.827 90.6875 307.699V307.692C90.6875 306.571 90.3115 305.915 89.6621 305.915C89.0127 305.915 88.6436 306.571 88.6436 307.692V307.699C88.6436 308.827 89.0127 309.49 89.6621 309.49ZM97.0996 315.137C95.7734 315.137 94.9668 314.098 94.9668 312.437V312.43C94.9668 310.769 95.7734 309.729 97.0996 309.729C98.4258 309.729 99.2324 310.769 99.2324 312.43V312.437C99.2324 314.098 98.4258 315.137 97.0996 315.137ZM97.0996 314.221C97.749 314.221 98.1182 313.558 98.1182 312.437V312.43C98.1182 311.302 97.749 310.646 97.0996 310.646C96.4502 310.646 96.0811 311.302 96.0811 312.43V312.437C96.0811 313.558 96.4502 314.221 97.0996 314.221Z" fill="white"/>
<path d="M112.388 309.327C112.735 309.709 112.735 310.291 112.388 310.673L103 321V299L112.388 309.327Z" fill="#030303"/>
<path d="M32 361.5H520" stroke="#E9E9E9"/>
<path d="M52.5 40.5H50.5C49.3954 40.5 48.5 41.3954 48.5 42.5C48.5 43.6046 49.3954 44.5 50.5 44.5H52.5" stroke="#5654D4" stroke-width="2" stroke-linecap="round" stroke-linejoin="round"/>
<path d="M50 35H51C52.1046 35 53 35.8954 53 37V47C53 48.1046 52.1046 49 51 49H37C35.8954 49 35 48.1046 35 47V37C35 35.8954 35.8954 35 37 35H38" stroke="#5654D4" stroke-width="2" stroke-linecap="round" stroke-linejoin="round"/>
<path d="M46 32.5H43C42.1716 32.5 41.5 33.1716 41.5 34C41.5 34.8284 42.1716 35.5 43 35.5H45C45.8284 35.5 46.5 36.1716 46.5 37C46.5 37.8284 45.8284 38.5 45 38.5H42" stroke="#5654D4" stroke-width="2" stroke-linecap="round"/>
<path d="M44 32.5V31" stroke="#5654D4" stroke-width="2" stroke-linecap="round"/>
<path d="M44 40V38.5" stroke="#5654D4" stroke-width="2" stroke-linecap="round"/>
<path d="M65.7383 47V32.9082H71.627C74.3027 32.9082 75.9141 34.2559 75.9141 36.4141V36.4336C75.9141 37.9082 74.8203 39.2168 73.4043 39.4414V39.6172C75.2988 39.793 76.6074 41.1602 76.6074 42.9863V43.0059C76.6074 45.4766 74.7715 47 71.7637 47H65.7383ZM71.0117 34.8711H68.2578V38.8457H70.6895C72.4766 38.8457 73.4238 38.1523 73.4238 36.873V36.8535C73.4238 35.6035 72.5352 34.8711 71.0117 34.8711ZM71.0898 40.6328H68.2578V45.0371H71.1875C73.043 45.0371 74.0293 44.2656 74.0293 42.8301V42.8105C74.0293 41.3848 73.0137 40.6328 71.0898 40.6328ZM81.8078 47.1758C79.7766 47.1758 78.302 45.9258 78.302 43.9824V43.9629C78.302 42.0586 79.757 40.9453 82.3547 40.7891L85.0988 40.623V39.7051C85.0988 38.6406 84.4055 38.0547 83.0969 38.0547C81.9836 38.0547 81.2609 38.4551 81.0168 39.1582L81.007 39.1973H78.7121L78.7219 39.1094C78.9563 37.3125 80.675 36.1211 83.2141 36.1211C85.9582 36.1211 87.5012 37.4492 87.5012 39.7051V47H85.0988V45.5352H84.9328C84.3469 46.5703 83.2141 47.1758 81.8078 47.1758ZM80.7043 43.8652C80.7043 44.7734 81.4758 45.3105 82.55 45.3105C84.0148 45.3105 85.0988 44.3535 85.0988 43.084V42.2246L82.6965 42.3809C81.3391 42.4688 80.7043 42.9668 80.7043 43.8457V43.8652ZM90.3188 47V32.1953H92.7504V47H90.3188ZM98.5367 47.1758C96.5055 47.1758 95.0309 45.9258 95.0309 43.9824V43.9629C95.0309 42.0586 96.4859 40.9453 99.0836 40.7891L101.828 40.623V39.7051C101.828 38.6406 101.134 38.0547 99.8258 38.0547C98.7125 38.0547 97.9898 38.4551 97.7457 39.1582L97.7359 39.1973H95.441L95.4508 39.1094C95.6852 37.3125 97.4039 36.1211 99.943 36.1211C102.687 36.1211 104.23 37.4492 104.23 39.7051V47H101.828V45.5352H101.662C101.076 46.5703 99.943 47.1758 98.5367 47.1758ZM97.4332 43.8652C97.4332 44.7734 98.2047 45.3105 99.2789 45.3105C100.744 45.3105 101.828 44.3535 101.828 43.084V42.2246L99.4254 42.3809C98.068 42.4688 97.4332 42.9668 97.4332 43.8457V43.8652ZM106.95 47V36.3262H109.382V37.957H109.548C110.055 36.8145 111.081 36.1211 112.624 36.1211C115.007 36.1211 116.305 37.5566 116.305 40.0957V47H113.874V40.6621C113.874 39.002 113.2 38.1621 111.725 38.1621C110.28 38.1621 109.382 39.1777 109.382 40.7793V47H106.95ZM123.557 47.2148C120.344 47.2148 118.449 45.1348 118.449 41.6484V41.6289C118.449 38.1816 120.334 36.1211 123.547 36.1211C126.291 36.1211 127.932 37.6445 128.205 39.8516V39.8906H125.91L125.9 39.8613C125.676 38.8262 124.885 38.084 123.557 38.084C121.896 38.084 120.92 39.3926 120.92 41.6289V41.6484C120.92 43.9141 121.906 45.2422 123.557 45.2422C124.816 45.2422 125.588 44.666 125.891 43.543L125.91 43.5039L128.205 43.4941L128.186 43.5723C127.834 45.7598 126.262 47.2148 123.557 47.2148ZM134.89 47.2148C131.716 47.2148 129.792 45.0859 129.792 41.6875V41.6777C129.792 38.3184 131.736 36.1211 134.773 36.1211C137.81 36.1211 139.685 38.25 139.685 41.4727V42.2734H132.224C132.253 44.1875 133.288 45.3008 134.939 45.3008C136.257 45.3008 137.009 44.6367 137.243 44.1484L137.273 44.0801H139.587L139.558 44.168C139.216 45.5449 137.79 47.2148 134.89 47.2148ZM134.802 38.0254C133.445 38.0254 132.429 38.9434 132.243 40.6426H137.312C137.146 38.8945 136.159 38.0254 134.802 38.0254Z" fill="#080808"/>
<path d="M155 48C159.418 48 163 44.4183 163 40C163 35.5817 159.418 32 155 32C150.582 32 147 35.5817 147 40C147 44.4183 150.582 48 155 48Z" fill="#AFAFAF"/>
<path fill-rule="evenodd" clip-rule="evenodd" d="M156.305 37.2422C156.43 37.0234 156.5 36.7695 156.5 36.5C156.5 35.6719 155.828 35 155 35C154.172 35 153.5 35.6719 153.5 36.5C153.5 37.3281 154.172 38 155 38C155.559 38 156.047 37.6953 156.305 37.2422ZM154 39H154.5H155.5C156.053 39 156.5 39.4473 156.5 40V41V45C156.5 45.5527 156.053 46 155.5 46C154.947 46 154.5 45.5527 154.5 45V41.75C154.5 41.3359 154.164 41 153.75 41C153.336 41 153 40.6641 153 40.25V40C153 39.6484 153.182 39.3379 153.455 39.1602C153.611 39.0586 153.799 39 154 39Z" fill="white"/>
<g filter="url(#filter1_d_10_13092)">
<path d="M508 22H434C427.373 22 422 27.3726 422 34V46C422 52.6274 427.373 58 434 58H508C514.627 58 520 52.6274 520 46V34C520 27.3726 514.627 22 508 22Z" fill="white"/>
<path d="M508 22.5H434C427.649 22.5 422.5 27.6487 422.5 34V46C422.5 52.3513 427.649 57.5 434 57.5H508C514.351 57.5 519.5 52.3513 519.5 46V34C519.5 27.6487 514.351 22.5 508 22.5Z" stroke="#E0E0E0"/>
<path d="M440 47H435V42M444 33H449V38" stroke="#888888" stroke-width="1.5" stroke-linecap="round" stroke-linejoin="round"/>
<path d="M474.77 33.1714C475.404 32.5402 476.429 32.5414 477.062 33.174L478.829 34.9413C479.461 35.5738 479.463 36.5989 478.832 37.233L468.673 47.4435H464.559V43.3344L474.77 33.1714Z" stroke="#888888" stroke-width="1.5" stroke-linecap="round" stroke-linejoin="round"/>
<path d="M473.48 34.4629L477.537 38.5192" stroke="#888888" stroke-width="1.5" stroke-linecap="round"/>
<path d="M494.15 40.0001C494.15 39.4902 494.33 39.0571 494.694 38.693C495.058 38.3289 495.491 38.1493 496 38.1499C496.51 38.1499 496.943 38.3298 497.307 38.694C497.671 39.0581 497.851 39.4906 497.85 39.9997C497.85 40.5096 497.67 40.9427 497.306 41.3068C496.942 41.671 496.509 41.8505 496 41.8499C495.49 41.8499 495.057 41.67 494.693 41.3058C494.329 40.9417 494.149 40.5092 494.15 40.0001ZM502 38.1499C502.51 38.1499 502.943 38.3298 503.307 38.694C503.671 39.0581 503.851 39.4906 503.85 39.9997C503.85 40.5096 503.67 40.9427 503.306 41.3068C502.942 41.671 502.509 41.8505 502 41.8499C501.49 41.8499 501.057 41.67 500.693 41.3058C500.329 40.9417 500.149 40.5092 500.15 40.0001C500.15 39.4902 500.33 39.0571 500.694 38.693C501.058 38.3289 501.491 38.1493 502 38.1499ZM508 38.1499C508.51 38.1499 508.943 38.3298 509.307 38.694C509.671 39.0581 509.851 39.4906 509.85 39.9997C509.85 40.5096 509.67 40.9427 509.306 41.3068C508.942 41.671 508.509 41.8505 508 41.8499C507.49 41.8499 507.057 41.67 506.693 41.3058C506.329 40.9417 506.149 40.5092 506.15 40.0001C506.15 39.4902 506.33 39.0571 506.694 38.693C507.058 38.3289 507.491 38.1493 508 38.1499Z" fill="#888888" stroke="white" stroke-width="0.3"/>
</g>
</g>
</g>
<defs>
<filter id="filter0_di_10_13092" x="0" y="0" width="552" height="440" filterUnits="userSpaceOnUse" color-interpolation-filters="sRGB">
<feFlood flood-opacity="0" result="BackgroundImageFix"/>
<feColorMatrix in="SourceAlpha" type="matrix" values="0 0 0 0 0 0 0 0 0 0 0 0 0 0 0 0 0 0 127 0" result="hardAlpha"/>
<feOffset dy="6"/>
<feGaussianBlur stdDeviation="5"/>
<feComposite in2="hardAlpha" operator="out"/>
<feColorMatrix type="matrix" values="0 0 0 0 0.695833 0 0 0 0 0.695833 0 0 0 0 0.695833 0 0 0 0.08 0"/>
<feBlend mode="normal" in2="BackgroundImageFix" result="effect1_dropShadow_10_13092"/>
<feBlend mode="normal" in="SourceGraphic" in2="effect1_dropShadow_10_13092" result="shape"/>
<feColorMatrix in="SourceAlpha" type="matrix" values="0 0 0 0 0 0 0 0 0 0 0 0 0 0 0 0 0 0 127 0" result="hardAlpha"/>
<feOffset dy="1"/>
<feGaussianBlur stdDeviation="1.5"/>
<feComposite in2="hardAlpha" operator="arithmetic" k2="-1" k3="1"/>
<feColorMatrix type="matrix" values="0 0 0 0 0 0 0 0 0 0 0 0 0 0 0 0 0 0 0.02 0"/>
<feBlend mode="normal" in2="shape" result="effect2_innerShadow_10_13092"/>
</filter>
<filter id="filter1_d_10_13092" x="420" y="21" width="102" height="40" filterUnits="userSpaceOnUse" color-interpolation-filters="sRGB">
<feFlood flood-opacity="0" result="BackgroundImageFix"/>
<feColorMatrix in="SourceAlpha" type="matrix" values="0 0 0 0 0 0 0 0 0 0 0 0 0 0 0 0 0 0 127 0" result="hardAlpha"/>
<feOffset dy="1"/>
<feGaussianBlur stdDeviation="1"/>
<feComposite in2="hardAlpha" operator="out"/>
<feColorMatrix type="matrix" values="0 0 0 0 0 0 0 0 0 0 0 0 0 0 0 0 0 0 0.05 0"/>
<feBlend mode="normal" in2="BackgroundImageFix" result="effect1_dropShadow_10_13092"/>
<feBlend mode="normal" in="SourceGraphic" in2="effect1_dropShadow_10_13092" result="shape"/>
</filter>
<clipPath id="clip0_10_13092">
<rect width="552" height="440" fill="white"/>
</clipPath>
</defs>
</svg>
