<svg width="132" height="35" viewBox="0 0 132 35" fill="none" xmlns="http://www.w3.org/2000/svg">
<path d="M44.8298 25.2047C44.235 25.237 43.6467 25.0679 43.1598 24.7247C42.9564 24.5739 42.7927 24.3758 42.6829 24.1476C42.5731 23.9193 42.5206 23.6678 42.5298 23.4147V14.1447C42.525 14.1055 42.5291 14.0656 42.542 14.0282C42.5548 13.9908 42.576 13.9569 42.604 13.9289C42.632 13.9009 42.6659 13.8797 42.7033 13.8669C42.7407 13.854 42.7806 13.8499 42.8198 13.8547H44.4998C44.6898 13.8547 44.7798 13.9547 44.7798 14.1447V22.6947C44.7798 23.0747 44.9498 23.2647 45.2998 23.2647C45.4482 23.2708 45.5966 23.254 45.7398 23.2147C45.9398 23.2147 46.0498 23.2747 46.0598 23.4547L46.2098 24.7047C46.217 24.7412 46.2163 24.7787 46.2078 24.8149C46.1993 24.851 46.1831 24.885 46.1603 24.9143C46.1376 24.9437 46.1088 24.9679 46.076 24.9852C46.0431 25.0025 46.0069 25.0126 45.9698 25.0147C45.6018 25.1363 45.2173 25.2004 44.8298 25.2047Z" fill="white"/>
<path d="M54.2798 24.1347C53.4357 24.8322 52.3748 25.2137 51.2798 25.2137C50.1848 25.2137 49.124 24.8322 48.2798 24.1347C47.5379 23.3857 47.1216 22.374 47.1216 21.3197C47.1216 20.2654 47.5379 19.2537 48.2798 18.5047C49.1256 17.8108 50.1858 17.4316 51.2798 17.4316C52.3738 17.4316 53.434 17.8108 54.2798 18.5047C55.0047 19.2606 55.4094 20.2674 55.4094 21.3147C55.4094 22.362 55.0047 23.3688 54.2798 24.1247V24.1347ZM49.8598 22.8147C50.2516 23.1696 50.7612 23.3661 51.2898 23.3661C51.8184 23.3661 52.3281 23.1696 52.7198 22.8147C53.0744 22.4071 53.2696 21.885 53.2696 21.3447C53.2696 20.8045 53.0744 20.2824 52.7198 19.8747C52.3281 19.5199 51.8184 19.3233 51.2898 19.3233C50.7612 19.3233 50.2516 19.5199 49.8598 19.8747C49.5053 20.2824 49.31 20.8045 49.31 21.3447C49.31 21.885 49.5053 22.4071 49.8598 22.8147Z" fill="white"/>
<path d="M64.6599 17.6847C64.8499 17.6847 64.9399 17.7847 64.9399 17.9747V25.1447C64.9574 25.6287 64.8668 26.1104 64.6748 26.5549C64.4828 26.9995 64.1942 27.3957 63.8299 27.7147C63.0213 28.4042 61.9815 28.7615 60.9199 28.7147C59.9611 28.7484 59.015 28.4866 58.2099 27.9647C57.8661 27.739 57.5724 27.4449 57.3471 27.1009C57.1217 26.7568 56.9695 26.3701 56.8999 25.9647C56.8999 25.7647 56.8999 25.6747 57.1699 25.6747H58.8499C58.9212 25.6771 58.9904 25.7002 59.0489 25.741C59.1075 25.7818 59.153 25.8386 59.1799 25.9047C59.2889 26.2084 59.5061 26.4613 59.7899 26.6147C60.1358 26.7932 60.5208 26.8826 60.9099 26.8747C61.1447 26.8876 61.3797 26.8535 61.6012 26.7745C61.8227 26.6956 62.0262 26.5732 62.1999 26.4147C62.3586 26.2489 62.482 26.0526 62.5628 25.8378C62.6436 25.623 62.68 25.394 62.6699 25.1647V24.5347C62.0684 24.9771 61.3363 25.2059 60.5899 25.1847C60.0675 25.2037 59.5467 25.117 59.0586 24.9297C58.5706 24.7423 58.1255 24.4584 57.7499 24.0947C57.029 23.3489 56.626 22.3521 56.626 21.3147C56.626 20.2774 57.029 19.2806 57.7499 18.5347C58.1273 18.1743 58.573 17.8931 59.0607 17.7076C59.5485 17.5221 60.0684 17.4361 60.5899 17.4547C61.3579 17.4344 62.1097 17.678 62.7199 18.1447V17.9847C62.7153 17.9464 62.7193 17.9075 62.7316 17.8709C62.7439 17.8344 62.7642 17.801 62.791 17.7732C62.8178 17.7454 62.8505 17.724 62.8866 17.7104C62.9228 17.6968 62.9615 17.6915 62.9999 17.6947L64.6599 17.6847ZM60.7799 23.4047C61.0375 23.4127 61.2938 23.364 61.5305 23.262C61.7672 23.1601 61.9787 23.0074 62.1499 22.8147C62.4824 22.3854 62.6628 21.8577 62.6628 21.3147C62.6628 20.7717 62.4824 20.2441 62.1499 19.8147C61.9793 19.6247 61.7691 19.4742 61.5342 19.374C61.2992 19.2738 61.0452 19.2263 60.7899 19.2347C60.5293 19.2265 60.2701 19.275 60.0301 19.3769C59.7901 19.4788 59.5751 19.6316 59.3999 19.8247C59.0316 20.2354 58.8379 20.7735 58.8599 21.3247C58.8419 21.8705 59.0313 22.4029 59.3899 22.8147C59.5655 23.0073 59.7806 23.1598 60.0205 23.2616C60.2604 23.3634 60.5194 23.4122 60.7799 23.4047Z" fill="white"/>
<path d="M73.57 24.1347C72.7242 24.8286 71.664 25.2078 70.57 25.2078C69.476 25.2078 68.4158 24.8286 67.57 24.1347C66.8445 23.3771 66.4395 22.3687 66.4395 21.3197C66.4395 20.2708 66.8445 19.2623 67.57 18.5047C68.4166 17.8126 69.4765 17.4345 70.57 17.4345C71.6635 17.4345 72.7234 17.8126 73.57 18.5047C74.2949 19.2606 74.6996 20.2674 74.6996 21.3147C74.6996 22.362 74.2949 23.3688 73.57 24.1247V24.1347ZM69.14 22.8147C69.3317 22.9971 69.5577 23.1396 69.8049 23.234C70.0521 23.3284 70.3155 23.3729 70.58 23.3647C70.8428 23.3715 71.1044 23.3265 71.3498 23.2321C71.5952 23.1377 71.8195 22.9959 72.01 22.8147C72.3588 22.4043 72.5503 21.8833 72.5503 21.3447C72.5503 20.8061 72.3588 20.2851 72.01 19.8747C71.8195 19.6936 71.5952 19.5517 71.3498 19.4574C71.1044 19.363 70.8428 19.3179 70.58 19.3247C70.3155 19.3166 70.0521 19.361 69.8049 19.4554C69.5577 19.5498 69.3317 19.6924 69.14 19.8747C68.7913 20.2851 68.5998 20.8061 68.5998 21.3447C68.5998 21.8833 68.7913 22.4043 69.14 22.8147Z" fill="white"/>
<path d="M78.31 15.9847C78.0457 16.2161 77.7063 16.3436 77.355 16.3436C77.0037 16.3436 76.6644 16.2161 76.4 15.9847C76.2802 15.8716 76.1847 15.7352 76.1194 15.5839C76.0542 15.4326 76.0205 15.2695 76.0205 15.1047C76.0205 14.9399 76.0542 14.7769 76.1194 14.6255C76.1847 14.4742 76.2802 14.3378 76.4 14.2247C76.6671 13.9991 77.0054 13.8754 77.355 13.8754C77.7046 13.8754 78.0429 13.9991 78.31 14.2247C78.4299 14.3378 78.5254 14.4742 78.5906 14.6255C78.6559 14.7769 78.6895 14.9399 78.6895 15.1047C78.6895 15.2695 78.6559 15.4326 78.5906 15.5839C78.5254 15.7352 78.4299 15.8716 78.31 15.9847ZM78.52 25.2047C77.9256 25.2339 77.3383 25.0651 76.85 24.7247C76.6497 24.5717 76.4888 24.3729 76.381 24.145C76.2731 23.9171 76.2213 23.6667 76.23 23.4147V17.9747C76.2252 17.9355 76.2293 17.8956 76.2422 17.8582C76.255 17.8208 76.2762 17.7869 76.3042 17.7589C76.3322 17.7309 76.3661 17.7097 76.4035 17.6969C76.4409 17.684 76.4808 17.6799 76.52 17.6847H78.2C78.39 17.6847 78.48 17.7847 78.48 17.9747V22.6947C78.48 23.0747 78.65 23.2647 78.99 23.2647C79.1417 23.2702 79.2933 23.2533 79.44 23.2147C79.64 23.2147 79.75 23.2747 79.76 23.4547L79.91 24.7047C79.9172 24.7412 79.9165 24.7787 79.908 24.8149C79.8995 24.851 79.8833 24.885 79.8605 24.9143C79.8378 24.9437 79.809 24.9679 79.7762 24.9852C79.7433 25.0025 79.7071 25.0126 79.67 25.0147C79.2988 25.137 78.9109 25.2011 78.52 25.2047Z" fill="white"/>
<path d="M86.0898 17.4447C86.6146 17.424 87.1381 17.5089 87.6294 17.6944C88.1207 17.88 88.5698 18.1623 88.9498 18.5247C89.657 19.2837 90.0502 20.2824 90.0502 21.3197C90.0502 22.357 89.657 23.3558 88.9498 24.1147C88.5716 24.4804 88.1231 24.7655 87.6315 24.9528C87.1399 25.1402 86.6155 25.2259 86.0898 25.2047C85.341 25.2214 84.6071 24.9932 83.9998 24.5547V28.1647C83.9998 28.3547 83.8998 28.4447 83.7098 28.4447H82.0298C81.9915 28.4519 81.952 28.4496 81.9147 28.4381C81.8775 28.4265 81.8436 28.4061 81.816 28.3785C81.7885 28.3509 81.768 28.3171 81.7565 28.2798C81.7449 28.2426 81.7427 28.2031 81.7498 28.1647V19.9647C81.7616 19.8845 81.7544 19.8027 81.729 19.7257C81.7035 19.6488 81.6603 19.5788 81.603 19.5215C81.5457 19.4642 81.4758 19.4211 81.3988 19.3956C81.3219 19.3701 81.24 19.363 81.1598 19.3747H80.8298C80.6098 19.3747 80.4998 19.2947 80.4998 19.1347V17.9547C80.4946 17.8817 80.5146 17.8091 80.5565 17.7491C80.5983 17.689 80.6595 17.6451 80.7298 17.6247C81.0757 17.499 81.4418 17.438 81.8098 17.4447C82.1768 17.4122 82.5451 17.4901 82.8676 17.6682C83.19 17.8464 83.452 18.1168 83.6198 18.4447C83.9419 18.1189 84.3271 17.8622 84.7518 17.6902C85.1765 17.5183 85.6318 17.4347 86.0898 17.4447ZM84.5298 22.8147C84.7081 23.0011 84.9223 23.1494 85.1595 23.2507C85.3967 23.352 85.6519 23.4042 85.9098 23.4042C86.1677 23.4042 86.423 23.352 86.6601 23.2507C86.8973 23.1494 87.1115 23.0011 87.2898 22.8147C87.6654 22.3958 87.8627 21.8469 87.8398 21.2847C87.866 20.7221 87.6682 20.1719 87.2898 19.7547C87.1115 19.5684 86.8973 19.4201 86.6601 19.3188C86.423 19.2174 86.1677 19.1652 85.9098 19.1652C85.6519 19.1652 85.3967 19.2174 85.1595 19.3188C84.9223 19.4201 84.7081 19.5684 84.5298 19.7547C84.166 20.1793 83.9766 20.726 83.9998 21.2847C83.9795 21.843 84.1686 22.3887 84.5298 22.8147Z" fill="white"/>
<path d="M94.77 25.2047C93.8723 25.2416 92.9822 25.0269 92.2 24.5847C91.8862 24.3957 91.619 24.1384 91.4181 23.832C91.2173 23.5256 91.0881 23.1779 91.04 22.8147C91.04 22.6147 91.11 22.5147 91.33 22.5147H92.8C92.8699 22.5175 92.9378 22.5394 92.996 22.5783C93.0542 22.6171 93.1006 22.6712 93.13 22.7347C93.34 23.2747 93.89 23.5447 94.77 23.5447C95.077 23.5588 95.3826 23.4969 95.66 23.3647C95.7558 23.3215 95.8379 23.2531 95.8978 23.1668C95.9577 23.0805 95.993 22.9795 96 22.8747C96 22.6147 95.84 22.4347 95.52 22.3147C95.1405 22.1884 94.7481 22.1045 94.35 22.0647C93.8785 22.0113 93.4109 21.9278 92.95 21.8147C92.5018 21.7133 92.0943 21.4799 91.78 21.1447C91.5949 20.9169 91.4587 20.6534 91.3797 20.3707C91.3008 20.088 91.2809 19.792 91.3212 19.5013C91.3616 19.2105 91.4613 18.9311 91.6142 18.6806C91.7671 18.43 91.9699 18.2136 92.21 18.0447C92.9308 17.5856 93.7765 17.3619 94.63 17.4047C95.4564 17.3768 96.274 17.5812 96.99 17.9947C97.2786 18.1582 97.527 18.3839 97.7173 18.6555C97.9076 18.9271 98.0349 19.2377 98.09 19.5647C98.09 19.7647 98 19.8647 97.82 19.8647H96.34C96.2777 19.8684 96.2157 19.8532 96.1622 19.8211C96.1087 19.789 96.0661 19.7414 96.04 19.6847C95.9411 19.4479 95.7549 19.2581 95.52 19.1547C95.255 19.0161 94.959 18.9472 94.66 18.9547C94.3669 18.9388 94.0745 18.9973 93.81 19.1247C93.7168 19.1607 93.6366 19.2237 93.5795 19.3057C93.5225 19.3877 93.4913 19.4849 93.49 19.5847C93.4964 19.7215 93.5465 19.8526 93.6329 19.9588C93.7193 20.065 93.8374 20.1406 93.97 20.1747C94.354 20.3195 94.7533 20.4201 95.16 20.4747C95.6277 20.5363 96.0917 20.6231 96.55 20.7347C96.9982 20.8362 97.4057 21.0695 97.72 21.4047C97.8882 21.5894 98.018 21.8055 98.1021 22.0407C98.1862 22.2758 98.2229 22.5253 98.21 22.7747C98.2186 23.1204 98.1375 23.4624 97.9745 23.7674C97.8115 24.0723 97.5722 24.3298 97.28 24.5147C96.5329 24.9944 95.6574 25.235 94.77 25.2047Z" fill="white"/>
<path d="M108.78 24.7047C108.786 24.7402 108.784 24.7765 108.776 24.8114C108.767 24.8464 108.752 24.8792 108.73 24.9081C108.709 24.937 108.682 24.9613 108.651 24.9796C108.62 24.9979 108.586 25.0098 108.55 25.0147C108.185 25.1339 107.804 25.198 107.42 25.2047C107.04 25.2441 106.656 25.1847 106.306 25.0323C105.955 24.8799 105.65 24.6396 105.42 24.3347C104.714 24.942 103.8 25.2536 102.87 25.2047C102.438 25.2246 102.007 25.1539 101.604 24.9972C101.201 24.8405 100.835 24.6012 100.53 24.2947C100.227 23.9736 99.9923 23.5946 99.8393 23.1805C99.6864 22.7664 99.6187 22.3257 99.6401 21.8847V17.9747C99.6401 17.7847 99.7301 17.6847 99.9201 17.6847H101.6C101.79 17.6847 101.88 17.7847 101.88 17.9747V21.5847C101.862 22.0345 102.015 22.4743 102.31 22.8147C102.457 22.9707 102.636 23.0933 102.834 23.1744C103.032 23.2555 103.246 23.2931 103.46 23.2847C103.679 23.2943 103.898 23.2604 104.104 23.1848C104.31 23.1093 104.499 22.9937 104.66 22.8447C104.812 22.6877 104.931 22.5011 105.008 22.2964C105.086 22.0917 105.12 21.8733 105.11 21.6547V17.9747C105.11 17.7847 105.2 17.6847 105.39 17.6847H107.09C107.28 17.6847 107.37 17.7847 107.37 17.9747V22.6847C107.37 23.0747 107.54 23.2647 107.87 23.2647C108.025 23.2707 108.18 23.2539 108.33 23.2147C108.368 23.2041 108.408 23.2022 108.446 23.2092C108.485 23.2161 108.521 23.2317 108.553 23.2548C108.585 23.2779 108.611 23.3079 108.63 23.3425C108.648 23.3771 108.658 23.4155 108.66 23.4547L108.78 24.7047Z" fill="white"/>
<path d="M124.67 24.7047C124.679 24.7405 124.68 24.7779 124.673 24.8141C124.665 24.8502 124.65 24.8844 124.628 24.914C124.606 24.9436 124.578 24.968 124.545 24.9854C124.513 25.0029 124.477 25.0129 124.44 25.0147C124.068 25.1356 123.681 25.1997 123.29 25.2047C122.695 25.2354 122.108 25.0665 121.62 24.7247C121.409 24.5783 121.238 24.3822 121.121 24.1537C121.004 23.9252 120.945 23.6713 120.95 23.4147V21.0647C120.971 20.6163 120.821 20.1766 120.53 19.8347C120.39 19.6784 120.216 19.5552 120.023 19.4739C119.829 19.3927 119.62 19.3554 119.41 19.3647C119.221 19.3576 119.033 19.3935 118.859 19.4697C118.686 19.5459 118.533 19.6605 118.41 19.8047C118.146 20.1398 118.011 20.5586 118.03 20.9847V24.6747C118.03 24.8647 117.94 24.9647 117.75 24.9647H116.06C116.021 24.9696 115.981 24.9654 115.944 24.9526C115.906 24.9397 115.872 24.9185 115.844 24.8905C115.816 24.8626 115.795 24.8286 115.782 24.7912C115.769 24.7538 115.765 24.714 115.77 24.6747V21.0647C115.792 20.6212 115.653 20.1846 115.38 19.8347C115.258 19.6877 115.105 19.5694 114.932 19.4882C114.76 19.407 114.571 19.3648 114.38 19.3647C114.176 19.3565 113.973 19.3914 113.783 19.4673C113.593 19.5431 113.422 19.6581 113.28 19.8047C112.994 20.1291 112.847 20.5529 112.87 20.9847V24.6747C112.875 24.714 112.871 24.7538 112.858 24.7912C112.845 24.8286 112.824 24.8626 112.796 24.8905C112.768 24.9185 112.734 24.9397 112.697 24.9526C112.659 24.9654 112.619 24.9696 112.58 24.9647H110.95C110.76 24.9647 110.67 24.8647 110.67 24.6747V19.9647C110.682 19.8845 110.675 19.8027 110.649 19.7257C110.624 19.6488 110.581 19.5788 110.523 19.5215C110.466 19.4642 110.396 19.4211 110.319 19.3956C110.242 19.3701 110.16 19.363 110.08 19.3747H109.75C109.53 19.3747 109.42 19.2947 109.42 19.1347V17.9547C109.415 17.8817 109.435 17.8091 109.477 17.7491C109.519 17.689 109.58 17.6451 109.65 17.6247C109.996 17.499 110.362 17.438 110.73 17.4447C111.083 17.4146 111.438 17.485 111.753 17.6478C112.068 17.8106 112.33 18.0591 112.51 18.3647C112.847 18.045 113.247 17.7982 113.684 17.6399C114.121 17.4816 114.586 17.4152 115.05 17.4447C115.501 17.4227 115.95 17.5072 116.362 17.6914C116.774 17.8756 117.136 18.1542 117.42 18.5047C117.751 18.145 118.158 17.8634 118.611 17.68C119.064 17.4967 119.552 17.4164 120.04 17.4447C120.476 17.4243 120.912 17.4946 121.32 17.6513C121.728 17.8079 122.099 18.0474 122.41 18.3547C122.714 18.6752 122.949 19.0541 123.102 19.4684C123.255 19.8826 123.323 20.3237 123.3 20.7647V22.6947C123.3 23.0747 123.47 23.2647 123.79 23.2647C123.945 23.2719 124.1 23.2551 124.25 23.2147C124.457 23.2147 124.567 23.2947 124.58 23.4547L124.67 24.7047Z" fill="white"/>
<path d="M7.41 16.3847C8.14777 13.4194 9.85643 10.7861 12.2639 8.90424C14.6714 7.02234 17.6393 6 20.695 6C23.7507 6 26.7186 7.02234 29.1261 8.90424C31.5336 10.7861 33.2422 13.4194 33.98 16.3847H32.78C30.7557 16.3549 28.7729 16.9599 27.11 18.1147C27.014 18.1842 26.9138 18.2477 26.81 18.3047H26.67C26.5662 18.2477 26.466 18.1842 26.37 18.1147C24.6924 16.9866 22.7166 16.3841 20.695 16.3841C18.6734 16.3841 16.6976 16.9866 15.02 18.1147C14.924 18.1842 14.8238 18.2477 14.72 18.3047H14.58C14.4762 18.2477 14.376 18.1842 14.28 18.1147C12.6171 16.9599 10.6343 16.3549 8.61 16.3847H7.41ZM30.62 22.6547C31.236 22.175 31.9995 21.924 32.78 21.9447H34.39V18.7347H32.78C31.4052 18.7181 30.0619 19.146 28.95 19.9547C28.3243 20.416 27.5674 20.6649 26.79 20.6649C26.0126 20.6649 25.2557 20.416 24.63 19.9547C23.4899 19.1611 22.1341 18.7356 20.745 18.7356C19.3559 18.7356 18.0001 19.1611 16.86 19.9547C16.2343 20.416 15.4774 20.6649 14.7 20.6649C13.9226 20.6649 13.1657 20.416 12.54 19.9547C11.4144 19.1356 10.0518 18.7072 8.66 18.7347H7V21.9447H8.61C9.39051 21.924 10.154 22.175 10.77 22.6547C11.908 23.4489 13.2623 23.8747 14.65 23.8747C16.0377 23.8747 17.392 23.4489 18.53 22.6547C19.1468 22.1765 19.9097 21.9257 20.69 21.9447C21.4708 21.9223 22.2348 22.1735 22.85 22.6547C23.9901 23.4484 25.3459 23.8738 26.735 23.8738C28.1241 23.8738 29.4799 23.4484 30.62 22.6547ZM30.62 28.3947C31.236 27.915 31.9995 27.664 32.78 27.6847H34.39V24.4747H32.78C31.4052 24.4581 30.0619 24.886 28.95 25.6947C28.3243 26.156 27.5674 26.4049 26.79 26.4049C26.0126 26.4049 25.2557 26.156 24.63 25.6947C23.4899 24.9011 22.1341 24.4757 20.745 24.4757C19.3559 24.4757 18.0001 24.9011 16.86 25.6947C16.2343 26.156 15.4774 26.4049 14.7 26.4049C13.9226 26.4049 13.1657 26.156 12.54 25.6947C11.4144 24.8757 10.0518 24.4472 8.66 24.4747H7V27.6847H8.61C9.39051 27.664 10.154 27.915 10.77 28.3947C11.908 29.1889 13.2623 29.6147 14.65 29.6147C16.0377 29.6147 17.392 29.1889 18.53 28.3947C19.1468 27.9165 19.9097 27.6657 20.69 27.6847C21.4708 27.6623 22.2348 27.9135 22.85 28.3947C23.9901 29.1884 25.3459 29.6138 26.735 29.6138C28.1241 29.6138 29.4799 29.1884 30.62 28.3947Z" fill="white"/>
</svg>
